<svg width="48" height="48" viewBox="0 0 48 48" fill="none" xmlns="http://www.w3.org/2000/svg">
<path fill-rule="evenodd" clip-rule="evenodd" d="M26.9201 12C30.8302 12 34 15.1204 34 18.9697V24.2719C33.9999 24.9256 33.7821 25.5613 33.3797 26.0814L26.3107 35.2155C25.6372 36.0856 24.3767 36.2579 23.4878 35.6015L22.747 35.0551C22.1561 34.6188 21.8534 33.9002 21.9578 33.1804L22.7193 27.9308H17.0341C15.2306 27.9306 13.8256 26.3911 14.0176 24.6258L14.9075 16.4484C15.1828 13.9187 17.3515 12 19.936 12H26.9201ZM19.936 13.9913C18.3853 13.9913 17.0837 15.1426 16.9185 16.6604L16.0286 24.8378C15.9646 25.4262 16.433 25.9393 17.0341 25.9394H22.7193C23.9503 25.9394 24.8965 27.0131 24.7224 28.2128L23.9609 33.4624L24.7007 34.0089L31.7707 24.8747C31.9047 24.7014 31.9771 24.4896 31.9772 24.2719V18.9697C31.9772 16.2202 29.713 13.9913 26.9201 13.9913H19.936Z" fill="#E25E5E"/>
</svg>
