<svg width="48" height="48" viewBox="0 0 48 48" fill="none" xmlns="http://www.w3.org/2000/svg">
<path d="M24 30.3877C24.7101 30.3877 25.2854 30.9462 25.2854 31.635C25.2854 32.3238 24.71 32.8823 24 32.8823C23.29 32.8823 22.7146 32.3238 22.7146 31.635C22.7146 30.9462 23.2899 30.3877 24 30.3877Z" fill="#F97316"/>
<path d="M24 19.7874C24.5326 19.7874 24.9646 20.206 24.9646 20.7226V27.5821C24.9643 28.0985 24.5324 28.5173 24 28.5173C23.4676 28.5173 23.0357 28.0985 23.0354 27.5821V20.7226C23.0354 20.206 23.4674 19.7874 24 19.7874Z" fill="#F97316"/>
<path fill-rule="evenodd" clip-rule="evenodd" d="M21.7621 13.8706C22.757 12.1975 25.243 12.1975 26.2379 13.8706L37.1495 32.2331C38.1441 33.9071 36.9011 36 34.9116 36H13.0884C11.0989 36 9.85586 33.9071 10.8505 32.2331L21.7621 13.8706ZM24.5746 14.8091C24.3194 14.3798 23.6806 14.3798 23.4254 14.8091L12.5182 33.1629C12.263 33.5922 12.5825 34.1296 13.0928 34.1296H34.9072C35.4175 34.1296 35.737 33.5922 35.4818 33.1629L24.5746 14.8091Z" fill="#F97316"/>
<path d="M13.875 21.524C14.4963 21.524 15 22.0226 15 22.6376C15 23.2525 14.4963 23.7511 13.875 23.7511H11.625C11.0037 23.7511 10.5 23.2525 10.5 22.6376C10.5 22.0226 11.0037 21.524 11.625 21.524H13.875Z" fill="#F97316"/>
<path d="M36.375 21.524C36.9963 21.524 37.5 22.0226 37.5 22.6376C37.5 23.2525 36.9963 23.7511 36.375 23.7511H34.125C33.5037 23.7511 33 23.2525 33 22.6376C33 22.0226 33.5037 21.524 34.125 21.524H36.375Z" fill="#F97316"/>
<path d="M11.9996 17.2787C12.3619 16.7791 13.0648 16.6646 13.5696 17.0231L15.3977 18.3215C15.9025 18.68 16.018 19.3758 15.6559 19.8755C15.2937 20.3751 14.5908 20.4895 14.0859 20.131L12.2578 18.8326C11.753 18.4741 11.6375 17.7783 11.9996 17.2787Z" fill="#F97316"/>
<path d="M34.4304 17.0231C34.9352 16.6646 35.6381 16.7791 36.0004 17.2787C36.3625 17.7783 36.247 18.4741 35.7422 18.8326L33.9141 20.131C33.4092 20.4895 32.7063 20.3751 32.3441 19.8755C31.982 19.3758 32.0975 18.68 32.6023 18.3215L34.4304 17.0231Z" fill="#F97316"/>
<path d="M14.8813 12.1177C15.4369 11.8428 16.1129 12.0659 16.3909 12.6157L17.6345 15.0777C17.9124 15.6277 17.687 16.2968 17.1313 16.5718C16.5756 16.8469 15.8997 16.6238 15.6218 16.0738L14.3782 13.6118C14.1006 13.0618 14.3257 12.3927 14.8813 12.1177Z" fill="#F97316"/>
<path d="M31.6091 12.6157C31.8871 12.0659 32.5631 11.8428 33.1187 12.1177C33.6743 12.3927 33.8994 13.0618 33.6218 13.6118L32.3782 16.0738C32.1003 16.6238 31.4244 16.8469 30.8687 16.5718C30.313 16.2968 30.0876 15.6277 30.3655 15.0777L31.6091 12.6157Z" fill="#F97316"/>
</svg>
