<svg width="48" height="48" viewBox="0 0 48 48" fill="none" xmlns="http://www.w3.org/2000/svg">
<path d="M30 23C30.5523 23 31 23.4477 31 24C31 24.5523 30.5523 25 30 25H18C17.4477 25 17 24.5523 17 24C17 23.4477 17.4477 23 18 23H30Z" fill="#E25E5E"/>
<path fill-rule="evenodd" clip-rule="evenodd" d="M24 12C30.6274 12 36 17.3726 36 24C36 30.6274 30.6274 36 24 36C17.3726 36 12 30.6274 12 24C12 17.3726 17.3726 12 24 12ZM24 14C18.4772 14 14 18.4772 14 24C14 29.5228 18.4772 34 24 34C29.5228 34 34 29.5228 34 24C34 18.4772 29.5228 14 24 14Z" fill="#E25E5E"/>
</svg>
