<svg width="48" height="48" viewBox="0 0 48 48" fill="none" xmlns="http://www.w3.org/2000/svg">
<path d="M27.3711 19.2793C27.7435 18.907 28.3473 18.9069 28.7197 19.2793C29.0921 19.6517 29.092 20.2555 28.7197 20.6279L25.3486 24L28.7207 27.3721C29.0931 27.7445 29.0931 28.3483 28.7207 28.7207C28.3483 29.0931 27.7445 29.0931 27.3721 28.7207L24 25.3486L20.6279 28.7207C20.2555 29.0931 19.6517 29.0931 19.2793 28.7207C18.9069 28.3483 18.9069 27.7445 19.2793 27.3721L22.6514 24L19.2803 20.6279C18.9079 20.2555 18.9079 19.6517 19.2803 19.2793C19.6527 18.9069 20.2565 18.9069 20.6289 19.2793L24 22.6514L27.3711 19.2793Z" fill="#E25E5E"/>
<path fill-rule="evenodd" clip-rule="evenodd" d="M24 12C30.6274 12 36 17.3726 36 24C36 30.6274 30.6274 36 24 36C17.3726 36 12 30.6274 12 24C12 17.3726 17.3726 12 24 12ZM24 14C18.4772 14 14 18.4772 14 24C14 29.5228 18.4772 34 24 34C29.5228 34 34 29.5228 34 24C34 18.4772 29.5228 14 24 14Z" fill="#E25E5E"/>
</svg>
