<svg width="48" height="48" viewBox="0 0 48 48" fill="none" xmlns="http://www.w3.org/2000/svg">
<path fill-rule="evenodd" clip-rule="evenodd" d="M21.0799 36C17.1698 36 14 32.8796 14 29.0303L14 23.7281C14.0001 23.0744 14.2179 22.4387 14.6203 21.9186L21.6893 12.7845C22.3628 11.9143 23.6233 11.7421 24.5122 12.3985L25.253 12.9449C25.8439 13.3812 26.1466 14.0998 26.0422 14.8196L25.2807 20.0692L30.9659 20.0692C32.7694 20.0694 34.1744 21.6089 33.9824 23.3742L33.0925 31.5516C32.8172 34.0813 30.6485 36 28.064 36L21.0799 36ZM28.064 34.0087C29.6147 34.0087 30.9163 32.8574 31.0815 31.3396L31.9714 23.1622C32.0354 22.5738 31.567 22.0607 30.9659 22.0606L25.2807 22.0606C24.0497 22.0606 23.1035 20.9869 23.2776 19.7872L24.0391 14.5376L23.2993 13.9911L16.2293 23.1253C16.0953 23.2985 16.0229 23.5104 16.0228 23.7281L16.0228 29.0303C16.0228 31.7798 18.287 34.0087 21.0799 34.0087L28.064 34.0087Z" fill="#79A986"/>
</svg>
