<svg width="48" height="48" viewBox="0 0 48 48" fill="none" xmlns="http://www.w3.org/2000/svg">
<path d="M24 28.3333C24.7364 28.3333 25.3333 28.9303 25.3333 29.6667C25.3333 30.403 24.7364 31 24 31C23.2636 31 22.6667 30.403 22.6667 29.6667C22.6667 28.9303 23.2636 28.3333 24 28.3333Z" fill="#BD7561"/>
<path d="M24 17C24.5523 17 25 17.4477 25 18V25.3333C25 25.8856 24.5523 26.3333 24 26.3333C23.4477 26.3333 23 25.8856 23 25.3333V18C23 17.4477 23.4477 17 24 17Z" fill="#BD7561"/>
<path fill-rule="evenodd" clip-rule="evenodd" d="M24 12C30.6274 12 36 17.3726 36 24C36 30.6274 30.6274 36 24 36C17.3726 36 12 30.6274 12 24C12 17.3726 17.3726 12 24 12ZM24 14C18.4772 14 14 18.4772 14 24C14 29.5228 18.4772 34 24 34C29.5228 34 34 29.5228 34 24C34 18.4772 29.5228 14 24 14Z" fill="#BD7561"/>
</svg>
