<svg width="48" height="48" viewBox="0 0 48 48" fill="none" xmlns="http://www.w3.org/2000/svg">
<path d="M24 21.6667C24.5523 21.6667 25 22.1144 25 22.6667V30C25 30.5523 24.5523 31 24 31C23.4477 31 23 30.5523 23 30V22.6667C23 22.1144 23.4477 21.6667 24 21.6667Z" fill="#339CFF"/>
<path d="M24 17C24.7364 17 25.3333 17.597 25.3333 18.3333C25.3333 19.0697 24.7364 19.6667 24 19.6667C23.2636 19.6667 22.6667 19.0697 22.6667 18.3333C22.6667 17.597 23.2636 17 24 17Z" fill="#339CFF"/>
<path fill-rule="evenodd" clip-rule="evenodd" d="M24 12C30.6274 12 36 17.3726 36 24C36 30.6274 30.6274 36 24 36C17.3726 36 12 30.6274 12 24C12 17.3726 17.3726 12 24 12ZM24 14C18.4772 14 14 18.4772 14 24C14 29.5228 18.4772 34 24 34C29.5228 34 34 29.5228 34 24C34 18.4772 29.5228 14 24 14Z" fill="#339CFF"/>
</svg>
