<svg width="48" height="48" viewBox="0 0 48 48" fill="none" xmlns="http://www.w3.org/2000/svg">
<path d="M25 23C25.5523 23 26 23.4477 26 24C26 24.5523 25.5523 25 25 25H18C17.4477 25 17 24.5523 17 24C17 23.4477 17.4477 23 18 23H25Z" fill="#A5C8FF"/>
<path d="M30 18C30.5523 18 31 18.4477 31 19C31 19.5523 30.5523 20 30 20H18C17.4477 20 17 19.5523 17 19C17 18.4477 17.4477 18 18 18H30Z" fill="#A5C8FF"/>
<path fill-rule="evenodd" clip-rule="evenodd" d="M34 12C35.1046 12 36 12.8954 36 14V27.8984C36 28.1636 35.8945 28.418 35.707 28.6055L28.6055 35.707C28.418 35.8945 28.1636 36 27.8984 36H14C12.8954 36 12 35.1046 12 34V14C12 12.8954 12.8954 12 14 12H34ZM15 14C14.4477 14 14 14.4477 14 15V33C14 33.5523 14.4477 34 15 34H27V29C27 27.8954 27.8954 27 29 27H34V15C34 14.4477 33.5523 14 33 14H15ZM30 29C29.4477 29 29 29.4477 29 30V32L32 29H30Z" fill="#A5C8FF"/>
</svg>
