<svg width="48" height="48" viewBox="0 0 48 48" fill="none" xmlns="http://www.w3.org/2000/svg">
<path d="M23.7568 29.9805C24.3145 29.9805 24.7666 30.4325 24.7666 30.9902C24.7666 31.5479 24.3145 32 23.7568 32H23.6797C23.122 32 22.6699 31.5479 22.6699 30.9902C22.6699 30.4325 23.122 29.9805 23.6797 29.9805H23.7568Z" fill="#8AE9F8"/>
<path d="M23.9365 16C24.7208 16 25.4634 16.1152 26.1631 16.3447C26.8703 16.5743 27.4588 16.9552 27.9277 17.4883C28.2891 17.8659 28.5575 18.2994 28.7344 18.7881C28.9112 19.2768 29 19.7915 29 20.332C29 20.991 28.8617 21.6056 28.585 22.1758C28.3159 22.7459 27.9506 23.2606 27.4893 23.7197C27.2355 23.9863 26.9581 24.231 26.6582 24.4531C26.3661 24.6752 26.0854 24.8971 25.8164 25.1191C25.555 25.3413 25.3471 25.586 25.1934 25.8525C24.9936 26.2003 24.8785 26.5223 24.8477 26.8184C24.8462 26.8363 24.8451 26.8554 24.8438 26.874C24.8003 27.4741 24.3252 27.9626 23.7236 27.9629C23.1217 27.9629 22.6236 27.473 22.6836 26.874C22.6982 26.7287 22.7165 26.5881 22.7373 26.4521C22.8142 25.9931 22.9756 25.5486 23.2217 25.1191C23.4446 24.7046 23.7101 24.3675 24.0176 24.1084C24.325 23.8419 24.6552 23.5861 25.0088 23.3418C25.3625 23.0975 25.7126 22.7978 26.0586 22.4424C26.3662 22.1092 26.57 21.7756 26.6699 21.4424C26.7698 21.1018 26.8203 20.7428 26.8203 20.3652C26.8203 20.0321 26.7779 19.7323 26.6934 19.4658C26.6165 19.1918 26.4853 18.9582 26.3008 18.7656C26.024 18.4325 25.6778 18.203 25.2627 18.0771C24.8552 17.9513 24.4283 17.8887 23.9824 17.8887C23.5596 17.8887 23.1599 17.9437 22.7832 18.0547C22.4141 18.1658 22.1064 18.3402 21.8604 18.5771C21.6145 18.7918 21.4337 19.0544 21.3184 19.3652C21.2966 19.4225 21.2753 19.5005 21.2549 19.5908C21.1077 20.2406 20.4683 20.7326 19.8232 20.5664C19.3466 20.4435 18.9818 19.9916 19.0771 19.5088C19.1308 19.2378 19.2375 18.9413 19.4727 18.5215C19.9003 17.758 20.1308 17.4548 20.6152 17.0771C21.0688 16.7071 21.5877 16.4369 22.1719 16.2666C22.7562 16.0889 23.3445 16 23.9365 16Z" fill="#8AE9F8"/>
<path fill-rule="evenodd" clip-rule="evenodd" d="M24 12C30.6274 12 36 17.3726 36 24C36 30.6274 30.6274 36 24 36C17.3726 36 12 30.6274 12 24C12 17.3726 17.3726 12 24 12ZM24 14C18.4772 14 14 18.4772 14 24C14 29.5228 18.4772 34 24 34C29.5228 34 34 29.5228 34 24C34 18.4772 29.5228 14 24 14Z" fill="#8AE9F8"/>
</svg>
