<svg width="48" height="48" viewBox="0 0 48 48" fill="none" xmlns="http://www.w3.org/2000/svg">
<path d="M28.2119 19.9596C28.6024 19.5692 29.2358 19.5691 29.6263 19.9596C30.0166 20.3501 30.0167 20.9832 29.6263 21.3737L22.707 28.293C22.6583 28.3417 22.6055 28.3843 22.5501 28.4209C22.4393 28.4941 22.3171 28.543 22.1911 28.5674C22.1595 28.5735 22.1276 28.578 22.0957 28.5811C22.0335 28.587 21.9708 28.5867 21.9085 28.5811C21.8433 28.5751 21.7784 28.5633 21.7152 28.5446C21.6224 28.5171 21.5327 28.4758 21.4495 28.4209C21.4357 28.4118 21.422 28.4021 21.4085 28.3923C21.3817 28.3725 21.3553 28.3512 21.3301 28.3285L21.293 28.293L17.707 24.707C17.3166 24.3165 17.3166 23.6835 17.707 23.293C18.0976 22.9025 18.7309 22.9025 19.1214 23.293L22 26.1715L28.2119 19.9596Z" fill="#79A986"/>
<path fill-rule="evenodd" clip-rule="evenodd" d="M24 12C30.6274 12 36 17.3726 36 24C36 30.6274 30.6274 36 24 36C17.3726 36 12 30.6274 12 24C12 17.3726 17.3726 12 24 12ZM24 14C18.4772 14 14 18.4772 14 24C14 29.5228 18.4772 34 24 34C29.5228 34 34 29.5228 34 24C34 18.4772 29.5228 14 24 14Z" fill="#79A986"/>
</svg>
