<svg width="48" height="48" viewBox="0 0 48 48" fill="none" xmlns="http://www.w3.org/2000/svg">
<path fill-rule="evenodd" clip-rule="evenodd" d="M24 12C28.6944 12 32.5 15.7195 32.5 20.3077C32.5 22.7282 31.4392 24.9045 29.7487 26.422C29.3502 26.7796 29.0559 27.2478 28.9786 27.7776L28.1255 33.622C27.9261 34.9862 26.7306 35.9999 25.3207 36H22.6793C21.2694 35.9999 20.0739 34.9862 19.8745 33.622L19.0206 27.7773C18.9432 27.2477 18.6489 26.7797 18.2507 26.4221C16.5603 24.9045 15.5 22.7281 15.5 20.3077C15.5 15.7195 19.3056 12 24 12ZM21.1667 31.3846L21.3419 32.9225C21.4218 33.6235 22.0277 34.1538 22.7493 34.1538H25.2507C25.9723 34.1538 26.5782 33.6235 26.6581 32.9225L26.8333 31.3846H21.1667ZM24 13.8462C20.3488 13.8462 17.3889 16.7391 17.3889 20.3077C17.3889 21.6174 17.7898 22.8345 18.4754 23.8522C18.7964 24.3292 19.1795 24.7624 19.6144 25.1403C19.7133 25.2261 19.9518 25.3995 20.1608 25.5483C20.3958 25.7156 20.5508 25.9736 20.5834 26.2602L20.9564 29.5385H27.0427L27.4157 26.2601C27.4483 25.9736 27.6032 25.7156 27.8382 25.5483C28.0473 25.3995 28.2859 25.226 28.3847 25.1403C28.8186 24.7635 29.2004 24.3314 29.5209 23.8558C30.2082 22.8372 30.6111 21.6192 30.6111 20.3077C30.6111 16.7391 27.6512 13.8462 24 13.8462Z" fill="#79A986"/>
</svg>
