<svg width="48" height="48" viewBox="0 0 48 48" fill="none" xmlns="http://www.w3.org/2000/svg">
<path fill-rule="evenodd" clip-rule="evenodd" d="M25.2639 20.1959C26.3182 19.1147 28.0275 19.1147 29.0818 20.1959C30.1362 21.2774 30.1362 23.0312 29.0818 24.1127L23.5263 29.8107C23.4137 29.9258 23.2718 30.0082 23.1176 30.0478L19.718 30.9195C19.0595 31.0875 18.4633 30.4752 18.6272 29.7999L19.4771 26.3131C19.5158 26.1548 19.5959 26.0094 19.7083 25.8939L25.2639 20.1959ZM27.8092 21.5012C27.4578 21.141 26.8879 21.141 26.5365 21.5012L21.445 26.7233L20.8087 28.6812L22.7177 28.0285L27.8092 22.8074C28.1606 22.4469 28.1606 21.8617 27.8092 21.5012Z" fill="#ACABAA"/>
<path fill-rule="evenodd" clip-rule="evenodd" d="M25.8 12C26.9753 12 27.9727 12.7711 28.3436 13.8462H31.2C32.1941 13.8462 33 14.6727 33 15.6923V34.1538C33 35.1734 32.1941 36 31.2 36H16.8C15.8059 36 15 35.1734 15 34.1538V15.6923C15 14.6727 15.8059 13.8462 16.8 13.8462H19.6564C20.0273 12.7711 21.0247 12 22.2 12H25.8ZM17.7 15.6923C17.2029 15.6923 16.8 16.1056 16.8 16.6154V33.2308C16.8 33.7406 17.2029 34.1538 17.7 34.1538H30.3C30.7971 34.1538 31.2 33.7406 31.2 33.2308V16.6154C31.2 16.1056 30.7971 15.6923 30.3 15.6923H28.3436C27.9727 16.7674 26.9753 17.5385 25.8 17.5385H22.2C21.0247 17.5385 20.0273 16.7674 19.6564 15.6923H17.7ZM22.2 13.8462C21.7029 13.8462 21.3 14.2594 21.3 14.7692C21.3 15.279 21.7029 15.6923 22.2 15.6923H25.8C26.2971 15.6923 26.7 15.279 26.7 14.7692C26.7 14.2594 26.2971 13.8462 25.8 13.8462H22.2Z" fill="#ACABAA"/>
</svg>
