<svg width="48" height="48" viewBox="0 0 48 48" fill="none" xmlns="http://www.w3.org/2000/svg">
<path d="M24 30.24C24.7101 30.24 25.2857 30.8131 25.2857 31.52C25.2857 32.2269 24.7101 32.8 24 32.8C23.2899 32.8 22.7143 32.2269 22.7143 31.52C22.7143 30.8131 23.2899 30.24 24 30.24Z" fill="#D9A441"/>
<path d="M24 19.36C24.5326 19.36 24.9643 19.7898 24.9643 20.32V27.36C24.9643 27.8902 24.5326 28.32 24 28.32C23.4674 28.32 23.0357 27.8902 23.0357 27.36V20.32C23.0357 19.7898 23.4674 19.36 24 19.36Z" fill="#D9A441"/>
<path fill-rule="evenodd" clip-rule="evenodd" d="M21.7616 13.2885C22.7564 11.5705 25.2436 11.5705 26.2384 13.2885L37.15 32.1344C38.1446 33.8525 36.9011 36 34.9116 36H13.0884C11.0989 36 9.85541 33.8525 10.85 32.1344L21.7616 13.2885ZM24.5741 14.2506C24.3189 13.8101 23.681 13.8101 23.4259 14.2506L12.5184 33.0884C12.2632 33.5291 12.5822 34.08 13.0925 34.08H34.9075C35.4178 34.08 35.7368 33.5291 35.4816 33.0884L24.5741 14.2506Z" fill="#D9A441"/>
</svg>
