<svg width="48" height="48" viewBox="0 0 48 48" fill="none" xmlns="http://www.w3.org/2000/svg">
<path fill-rule="evenodd" clip-rule="evenodd" d="M30.384 17.0016C31.2989 17.0016 32.0487 17.192 32.6315 17.5744C33.2205 17.9502 33.6562 18.4341 33.9382 19.0237C34.2262 19.6133 34.3696 20.2229 34.3696 20.8513C34.3696 21.6223 34.1913 22.2771 33.8341 22.8149C33.6139 23.1523 33.343 23.4206 33.0217 23.6203C33.5713 23.8525 34.0089 24.2018 34.3329 24.6709C34.7778 25.3059 34.9999 26.0287 35 26.8386C35 27.6682 34.8465 28.3952 34.5395 29.0174C34.2324 29.6393 33.7747 30.1248 33.167 30.4747C32.5656 30.8246 31.8198 30.9999 30.9302 31H25.0167V17.0016H30.384ZM27.3102 28.7927H30.6471C31.0419 28.7927 31.3971 28.7127 31.7105 28.5506C32.0236 28.3821 32.268 28.1477 32.4434 27.8497C32.6249 27.5452 32.7157 27.1851 32.7157 26.7706C32.7156 26.3949 32.6367 26.0575 32.4801 25.7595C32.3235 25.4618 32.0951 25.2255 31.7946 25.0506C31.4938 24.8692 31.1328 24.7785 30.7129 24.7785H27.3102V28.7927ZM27.3102 22.5902H30.3564C30.682 22.5901 30.9733 22.5266 31.2301 22.3972C31.487 22.2675 31.6917 22.0755 31.8421 21.8228C31.9923 21.5701 32.067 21.2585 32.067 20.8892C32.0669 20.4033 31.9164 19.998 31.6156 19.6741C31.3149 19.3502 30.8951 19.1884 30.3564 19.1883H27.3102V22.5902Z" fill="white"/>
<path fill-rule="evenodd" clip-rule="evenodd" d="M24.8545 30.9984H22.5228L21.5879 27.9652H16.2559L15.3317 30.9984H13L17.2672 17H20.5858L24.8545 30.9984ZM16.9214 25.7785H20.9132L18.9043 19.2642L16.9214 25.7785Z" fill="white"/>
</svg>
