<svg width="48" height="48" viewBox="0 0 48 48" fill="none" xmlns="http://www.w3.org/2000/svg">
<path fill-rule="evenodd" clip-rule="evenodd" d="M32.1848 17.72C32.7002 18.2262 32.9899 18.9128 32.99 19.6286V22.2692C32.2546 22.4217 31.5474 22.7416 30.928 23.2277L30.9273 19.9718H24.7401C23.2215 19.9717 21.9904 18.7629 21.9904 17.2718V11.1965H14.4277C13.6686 11.1966 13.0532 11.8013 13.0529 12.5465L13.0529 32.7971C13.053 33.5425 13.6685 34.147 14.4277 34.1471L20.5548 34.1464C20.5129 34.2849 20.4769 34.4261 20.4519 34.5697L20.1736 36.1711L13.7399 36.1718C12.2214 36.1715 10.9902 34.9628 10.9902 33.4718L10.9902 11.8719C10.9904 10.381 12.2215 9.1721 13.7399 9.17188L22.3399 9.17188C23.0688 9.1719 23.7681 9.45663 24.2837 9.96254L32.1848 17.72ZM24.0531 12.6087V16.5972C24.0532 17.3426 24.6687 17.9471 25.4279 17.9472L29.4896 17.9472L24.0531 12.6087Z" fill="#D9D9D9"/>
<path d="M36.1319 25.0424C37.3035 26.214 37.3035 28.1135 36.1319 29.2851L28.4746 36.9424C28.145 37.2719 27.7377 37.5131 27.2903 37.6433L23.3121 38.7999C22.7391 38.9666 22.2077 38.4352 22.3744 37.8622L23.531 33.884C23.6612 33.4366 23.9024 33.0293 24.2319 32.6997L31.8892 25.0424C33.0608 23.8708 34.9603 23.8708 36.1319 25.0424Z" fill="#D9D9D9"/>
</svg>
