<svg width="48" height="48" viewBox="0 0 48 48" fill="none" xmlns="http://www.w3.org/2000/svg">
<path d="M23.8584 12.5C30.2097 12.5 35.3584 17.6487 35.3584 24C35.3584 30.3513 30.2097 35.5 23.8584 35.5C18.4139 35.5 13.856 31.716 12.6651 26.6348C12.5257 26.0396 13.0011 25.5002 13.6123 25.5C14.1105 25.5 14.5296 25.8639 14.6524 26.3467C15.6971 30.4582 19.4218 33.5 23.8584 33.5C29.1051 33.5 33.3584 29.2467 33.3584 24C33.3584 18.7533 29.1051 14.5 23.8584 14.5C20.6618 14.5 17.8351 16.0796 16.1133 18.5H18.8584C19.4107 18.5 19.8584 18.9477 19.8584 19.5C19.8584 20.0523 19.4107 20.5 18.8584 20.5H13.8584C13.3062 20.5 12.8584 20.0523 12.8584 19.5V14.5C12.8584 13.9477 13.3062 13.5 13.8584 13.5C14.4107 13.5 14.8584 13.9477 14.8584 14.5V16.8438C16.9653 14.1975 20.213 12.5 23.8584 12.5Z" fill="white"/>
<path d="M23.2862 17.6191C23.8379 17.6196 24.2849 18.0664 24.2852 18.6182V24.2021L27.9971 27.9092C28.3876 28.2993 28.388 28.9325 27.9981 29.3232C27.6079 29.7141 26.9739 29.7144 26.5831 29.3242L22.2852 25.0332V18.6182C22.2855 18.0661 22.7341 17.6191 23.2862 17.6191Z" fill="white"/>
</svg>
