<svg width="48" height="48" viewBox="0 0 48 48" fill="none" xmlns="http://www.w3.org/2000/svg">
<path d="M21.667 12.6092C22.0575 12.2188 22.6906 12.2188 23.0811 12.6092C23.4714 12.9996 23.4714 13.6327 23.0811 14.0232L18.4238 18.6804H27.4404C27.4261 18.6804 27.4547 18.6804 27.4404 18.6804C32.1349 18.6804 35.9834 22.485 35.9834 27.1795C35.9834 31.8635 32.1947 35.6685 27.5146 35.6853H13.0176C12.4654 35.6853 12.0178 35.2374 12.0176 34.6853C12.0176 34.133 12.4653 33.6853 13.0176 33.6853H22.0156C22.0133 33.6834 22.0111 33.6814 22.0088 33.6795H27.4834C31.0732 33.6795 33.9834 30.7693 33.9834 27.1795C33.9834 23.5987 31.088 20.6942 27.5107 20.6795L18.4238 20.6804L23.0811 25.3377C23.4713 25.7282 23.4715 26.3613 23.0811 26.7517C22.6906 27.1419 22.0574 27.1419 21.667 26.7517L15.3027 20.3875C14.9125 19.997 14.9125 19.3639 15.3027 18.9734L21.667 12.6092Z" fill="white"/>
</svg>
