<svg width="48" height="48" viewBox="0 0 48 48" fill="none" xmlns="http://www.w3.org/2000/svg">
<path fill-rule="evenodd" clip-rule="evenodd" d="M24.0004 10.5C26.2096 10.5 28.0004 12.2909 28.0004 14.5C28.0004 16.3638 26.7256 17.93 25.0004 18.374V20.5H28.0004C28.5527 20.5 29.0004 20.9477 29.0004 21.5C29.0004 22.0523 28.5527 22.5 28.0004 22.5H25.0004V33.4678C28.2318 33.2825 30.4705 32.2214 31.9194 31.1865C32.0659 31.0818 32.2033 30.9756 32.3344 30.8721L31.8754 30.4131C31.2826 29.8202 31.6388 28.8046 32.4721 28.7119L35.5258 28.373C36.1626 28.3023 36.7008 28.8399 36.6303 29.4766L36.2914 32.5303C36.1988 33.3637 35.1832 33.7199 34.5903 33.127L33.7573 32.2949C33.5488 32.4659 33.3241 32.6402 33.0815 32.8135C31.3295 34.0649 28.6951 35.2814 25.0004 35.4707V36.5C25.0004 37.0523 24.5527 37.5 24.0004 37.5C23.4481 37.5 23.0004 37.0523 23.0004 36.5V35.4707C19.3057 35.2814 16.6713 34.0649 14.9194 32.8135C14.6765 32.64 14.4512 32.4661 14.2426 32.2949L13.4115 33.127C12.8187 33.7198 11.8031 33.3635 11.7104 32.5303L11.3715 29.4766C11.3008 28.8398 11.8383 28.3016 12.475 28.3721L15.5287 28.7109C16.3621 28.8035 16.7183 29.8192 16.1254 30.4121L15.6645 30.8721C15.7959 30.976 15.9345 31.0815 16.0815 31.1865C17.5304 32.2214 19.7691 33.2825 23.0004 33.4678V22.5H20.0004C19.4481 22.5 19.0004 22.0523 19.0004 21.5C19.0004 20.9477 19.4481 20.5 20.0004 20.5H23.0004V18.374C21.2752 17.93 20.0004 16.3638 20.0004 14.5C20.0004 12.2909 21.7913 10.5 24.0004 10.5ZM24.0004 12.5C22.8958 12.5 22.0004 13.3954 22.0004 14.5C22.0004 15.6046 22.8958 16.5 24.0004 16.5C25.105 16.5 26.0004 15.6046 26.0004 14.5C26.0004 13.3954 25.105 12.5 24.0004 12.5Z" fill="white"/>
</svg>
