<svg width="48" height="48" viewBox="0 0 48 48" fill="none" xmlns="http://www.w3.org/2000/svg">
<path fill-rule="evenodd" clip-rule="evenodd" d="M17.5 15.1719C20.5376 15.1719 23 17.6343 23 20.6719C23 22.0181 22.5149 23.2501 21.7119 24.2061L16.7324 32.832L15 31.832L18.3018 26.1123C18.04 26.1506 17.7724 26.1719 17.5 26.1719C14.4624 26.1719 12 23.7094 12 20.6719C12 17.6343 14.4624 15.1719 17.5 15.1719ZM17.5 17.1719C15.567 17.1719 14 18.7389 14 20.6719C14 22.6049 15.567 24.1719 17.5 24.1719C19.433 24.1719 21 22.6049 21 20.6719C21 18.7389 19.433 17.1719 17.5 17.1719Z" fill="#D9D9D9"/>
<path fill-rule="evenodd" clip-rule="evenodd" d="M30.5 15.1719C33.5376 15.1719 36 17.6343 36 20.6719C36 22.0181 35.5149 23.2501 34.7119 24.2061L29.7324 32.832L28 31.832L31.3018 26.1123C31.04 26.1506 30.7724 26.1719 30.5 26.1719C27.4624 26.1719 25 23.7094 25 20.6719C25 17.6343 27.4624 15.1719 30.5 15.1719ZM30.5 17.1719C28.567 17.1719 27 18.7389 27 20.6719C27 22.6049 28.567 24.1719 30.5 24.1719C32.433 24.1719 34 22.6049 34 20.6719C34 18.7389 32.433 17.1719 30.5 17.1719Z" fill="#D9D9D9"/>
</svg>
