<svg width="48" height="48" viewBox="0 0 48 48" fill="none" xmlns="http://www.w3.org/2000/svg">
<path d="M11.2 35.5L15.5294 27.8333C13.4588 27.8333 11.6863 27.0826 10.2118 25.5813C8.73726 24.0799 8 22.275 8 20.1667C8 18.0583 8.73726 16.2535 10.2118 14.7521C11.6863 13.2507 13.4588 12.5 15.5294 12.5C17.6 12.5 19.3725 13.2507 20.8471 14.7521C22.3216 16.2535 23.0588 18.0583 23.0588 20.1667C23.0588 20.9014 22.9725 21.5802 22.8 22.2031C22.6275 22.826 22.3686 23.425 22.0235 24L15.5294 35.5H11.2ZM28.1412 35.5L32.4706 27.8333C30.4 27.8333 28.6275 27.0826 27.1529 25.5813C25.6784 24.0799 24.9412 22.275 24.9412 20.1667C24.9412 18.0583 25.6784 16.2535 27.1529 14.7521C28.6275 13.2507 30.4 12.5 32.4706 12.5C34.5412 12.5 36.3137 13.2507 37.7882 14.7521C39.2627 16.2535 40 18.0583 40 20.1667C40 20.9014 39.9137 21.5802 39.7412 22.2031C39.5686 22.826 39.3098 23.425 38.9647 24L32.4706 35.5H28.1412ZM15.5294 23.0417C16.3137 23.0417 16.9804 22.7622 17.5294 22.2031C18.0784 21.6441 18.3529 20.9653 18.3529 20.1667C18.3529 19.3681 18.0784 18.6892 17.5294 18.1302C16.9804 17.5712 16.3137 17.2917 15.5294 17.2917C14.7451 17.2917 14.0784 17.5712 13.5294 18.1302C12.9804 18.6892 12.7059 19.3681 12.7059 20.1667C12.7059 20.9653 12.9804 21.6441 13.5294 22.2031C14.0784 22.7622 14.7451 23.0417 15.5294 23.0417ZM32.4706 23.0417C33.2549 23.0417 33.9216 22.7622 34.4706 22.2031C35.0196 21.6441 35.2941 20.9653 35.2941 20.1667C35.2941 19.3681 35.0196 18.6892 34.4706 18.1302C33.9216 17.5712 33.2549 17.2917 32.4706 17.2917C31.6863 17.2917 31.0196 17.5712 30.4706 18.1302C29.9216 18.6892 29.6471 19.3681 29.6471 20.1667C29.6471 20.9653 29.9216 21.6441 30.4706 22.2031C31.0196 22.7622 31.6863 23.0417 32.4706 23.0417Z" fill="white"/>
</svg>
