<svg width="14" height="10" viewBox="0 0 14 10" fill="none" xmlns="http://www.w3.org/2000/svg">
<path fill-rule="evenodd" clip-rule="evenodd" d="M3.20833 0C4.98025 0 6.41667 1.39434 6.41667 3.11436C6.41667 3.87663 6.1337 4.57425 5.66528 5.11557L2.76058 10L1.75 9.43375L3.67603 6.19498C3.52331 6.21664 3.36724 6.22871 3.20833 6.22871C1.43642 6.22871 0 4.83437 0 3.11436C0 1.39434 1.43642 0 3.20833 0ZM3.20833 1.13249C2.08075 1.13249 1.16667 2.0198 1.16667 3.11436C1.16667 4.20891 2.08075 5.09622 3.20833 5.09622C4.33591 5.09622 5.25 4.20891 5.25 3.11436C5.25 2.0198 4.33591 1.13249 3.20833 1.13249Z" fill="#D9D9D9"/>
<path fill-rule="evenodd" clip-rule="evenodd" d="M10.7917 0C12.5636 0 14 1.39434 14 3.11436C14 3.87663 13.717 4.57425 13.2486 5.11557L10.3439 10L9.33333 9.43375L11.2594 6.19498C11.1066 6.21664 10.9506 6.22871 10.7917 6.22871C9.01975 6.22871 7.58333 4.83437 7.58333 3.11436C7.58333 1.39434 9.01975 0 10.7917 0ZM10.7917 1.13249C9.66408 1.13249 8.75 2.0198 8.75 3.11436C8.75 4.20891 9.66408 5.09622 10.7917 5.09622C11.9192 5.09622 12.8333 4.20891 12.8333 3.11436C12.8333 2.0198 11.9192 1.13249 10.7917 1.13249Z" fill="#D9D9D9"/>
</svg>
