<svg width="48" height="48" viewBox="0 0 48 48" fill="none" xmlns="http://www.w3.org/2000/svg">
<path fill-rule="evenodd" clip-rule="evenodd" d="M25 10.5C29.1421 10.5 32.5 13.8579 32.5 18C32.5 19.8052 31.8613 21.4606 30.7988 22.7549C33.0235 24.1757 34.5 26.6645 34.5 29.5C34.5 33.9183 30.9183 37.5 26.5 37.5H16.4219C14.8082 37.5 13.5 36.1918 13.5 34.5781V13.1436C13.5 11.6836 14.6836 10.5 16.1436 10.5H25ZM18.5 26.5V32.5H26.5C28.1569 32.5 29.5 31.1569 29.5 29.5C29.5 27.8431 28.1569 26.5 26.5 26.5H18.5ZM18.5 15.5V21.5H24.5C26.1569 21.5 27.5 20.1569 27.5 18.5C27.5 16.8431 26.1569 15.5 24.5 15.5H18.5Z" fill="white"/>
</svg>
