<svg width="48" height="48" viewBox="0 0 48 48" fill="none" xmlns="http://www.w3.org/2000/svg">
<path d="M15.5 31C16.6046 31 17.5 31.8954 17.5 33C17.5 34.1046 16.6046 35 15.5 35C14.3954 35 13.5 34.1046 13.5 33C13.5 31.8954 14.3954 31 15.5 31Z" fill="white"/>
<path d="M33.5 32C34.0523 32 34.5 32.4477 34.5 33C34.5 33.5523 34.0523 34 33.5 34H20.5C19.9477 34 19.5 33.5523 19.5 33C19.5 32.4477 19.9477 32 20.5 32H33.5Z" fill="white"/>
<path d="M15.5 22C16.6046 22 17.5 22.8954 17.5 24C17.5 25.1046 16.6046 26 15.5 26C14.3954 26 13.5 25.1046 13.5 24C13.5 22.8954 14.3954 22 15.5 22Z" fill="white"/>
<path d="M33.5 23C34.0523 23 34.5 23.4477 34.5 24C34.5 24.5523 34.0523 25 33.5 25H20.5C19.9477 25 19.5 24.5523 19.5 24C19.5 23.4477 19.9477 23 20.5 23H33.5Z" fill="white"/>
<path d="M15.5 13C16.6046 13 17.5 13.8954 17.5 15C17.5 16.1046 16.6046 17 15.5 17C14.3954 17 13.5 16.1046 13.5 15C13.5 13.8954 14.3954 13 15.5 13Z" fill="white"/>
<path d="M33.5 14C34.0523 14 34.5 14.4477 34.5 15C34.5 15.5523 34.0523 16 33.5 16H20.5C19.9477 16 19.5 15.5523 19.5 15C19.5 14.4477 19.9477 14 20.5 14H33.5Z" fill="white"/>
</svg>
