<svg width="48" height="48" viewBox="0 0 48 48" fill="none" xmlns="http://www.w3.org/2000/svg">
<path fill-rule="evenodd" clip-rule="evenodd" d="M34.9316 12.5329C36.2134 12.1531 37.5 13.114 37.5 14.4509V33.0934C37.4998 34.4301 36.2133 35.3911 34.9316 35.0114L25.7715 32.2966C24.6895 34.7231 21.978 36.0733 19.3301 35.3639C16.5864 34.6288 14.8876 31.9443 15.3213 29.1999L11.9316 28.196C11.0827 27.9443 10.5002 27.1644 10.5 26.279V21.2653C10.5001 20.3798 11.0827 19.6 11.9316 19.3483L34.9316 12.5329ZM17.124 29.7341C16.9234 31.3552 18.0232 32.9428 19.7471 33.405C21.4058 33.8494 23.0852 33.1026 23.7773 31.7057L17.124 29.7341ZM35.5 16.0934C35.4997 15.4307 34.8664 14.9516 34.2285 15.1315L13.2285 21.0661C12.7979 21.1878 12.5 21.5815 12.5 22.029V25.5153C12.5001 25.9627 12.7979 26.3565 13.2285 26.4782L34.2285 32.4128C34.8663 32.5926 35.4995 32.1134 35.5 31.4509V16.0934Z" fill="white"/>
</svg>
