<svg width="48" height="48" viewBox="0 0 48 48" fill="none" xmlns="http://www.w3.org/2000/svg">
<path fill-rule="evenodd" clip-rule="evenodd" d="M32 14C33.1046 14 34 14.8954 34 16V32C34 33.1046 33.1046 34 32 34H16C14.8954 34 14 33.1046 14 32V16C14 14.8954 14.8954 14 16 14H32ZM17 16C16.4477 16 16 16.4477 16 17V31C16 31.5523 16.4477 32 17 32H31C31.5523 32 32 31.5523 32 31V17C32 16.4477 31.5523 16 31 16H17Z" fill="white"/>
<path d="M27.8711 20.293C28.2616 19.9026 28.8947 19.9025 29.2852 20.293C29.6755 20.6835 29.6755 21.3165 29.2852 21.707L22.7754 28.2168C22.754 28.243 22.7314 28.2686 22.707 28.293C22.5108 28.4892 22.2533 28.5859 21.9961 28.585C21.7389 28.586 21.4814 28.4892 21.2852 28.293C21.2595 28.2673 21.2352 28.2405 21.2129 28.2129L18.707 25.707C18.3165 25.3165 18.3165 24.6835 18.707 24.293C19.0976 23.9024 19.7306 23.9024 20.1211 24.293L21.9961 26.168L27.8711 20.293Z" fill="white"/>
</svg>
