<svg width="48" height="48" viewBox="0 0 48 48" fill="none" xmlns="http://www.w3.org/2000/svg">
<path d="M24.2549 18.7129C24.4138 18.1844 24.9713 17.8834 25.5 18.042C26.0285 18.2009 26.3273 18.7594 26.1689 19.2881L23.9551 29.2822C23.796 29.8106 23.2377 30.1108 22.709 29.9521C22.1807 29.7931 21.8807 29.2347 22.0391 28.7061L24.2549 18.7129Z" fill="white"/>
<path d="M19.292 20.2871C19.6825 19.8966 20.3155 19.8967 20.7061 20.2871C21.0966 20.6776 21.0966 21.3106 20.7061 21.7012L18.415 23.9912L20.707 26.2881C21.0969 26.679 21.0959 27.3121 20.7051 27.7021C20.3141 28.0917 19.681 28.0909 19.291 27.7002L16.3379 24.7432C16.3225 24.7295 16.3067 24.7159 16.292 24.7012C16.0236 24.4327 15.9404 24.0491 16.041 23.709C16.0866 23.5528 16.1708 23.4053 16.2939 23.2822C16.3043 23.2719 16.3155 23.2618 16.3262 23.252L19.292 20.2871Z" fill="white"/>
<path d="M27.292 20.2871C27.6825 19.8966 28.3155 19.8967 28.7061 20.2871L31.6709 23.252C31.6819 23.262 31.6935 23.2716 31.7041 23.2822C31.8274 23.4054 31.9114 23.5527 31.957 23.709C32.0578 24.0492 31.9746 24.4326 31.7061 24.7012C31.6912 24.716 31.6747 24.7295 31.6592 24.7432L28.707 27.7002C28.317 28.0907 27.6838 28.0919 27.293 27.7021C26.9023 27.3122 26.9015 26.679 27.291 26.2881L29.582 23.9912L27.292 21.7012C26.9016 21.3107 26.9018 20.6776 27.292 20.2871Z" fill="white"/>
<path fill-rule="evenodd" clip-rule="evenodd" d="M32 12C34.2091 12 36 13.7909 36 16V32C36 34.2091 34.2091 36 32 36H16C13.7909 36 12 34.2091 12 32V16C12 13.7909 13.7909 12 16 12H32ZM16 14C14.8954 14 14 14.8954 14 16V32C14 33.1046 14.8954 34 16 34H32C33.1046 34 34 33.1046 34 32V16C34 14.8954 33.1046 14 32 14H16Z" fill="white"/>
</svg>
