<svg width="48" height="48" viewBox="0 0 48 48" fill="none" xmlns="http://www.w3.org/2000/svg">
<path d="M18.3552 16.7068C18.7457 16.3166 19.3788 16.3164 19.7692 16.7068C20.1594 17.0973 20.1594 17.7304 19.7692 18.1209L13.8903 23.9998L19.7692 29.8787C20.1592 30.2692 20.1596 30.9024 19.7692 31.2927C19.3789 31.683 18.7457 31.6827 18.3552 31.2927L11.7692 24.7068C11.4032 24.3407 11.3806 23.7617 11.7009 23.3689L11.7692 23.2927L18.3552 16.7068Z" fill="white"/>
<path d="M28.2302 16.7068C28.6206 16.3164 29.2537 16.3165 29.6442 16.7068L36.2302 23.2927L36.2985 23.3689C36.6186 23.7616 36.5961 24.3408 36.2302 24.7068L29.6442 31.2927C29.2538 31.6829 28.6206 31.6829 28.2302 31.2927C27.8397 30.9023 27.8399 30.2692 28.2302 29.8787L34.1091 23.9998L28.2302 18.1209C27.8399 17.7303 27.8397 17.0972 28.2302 16.7068Z" fill="white"/>
</svg>
