<svg width="48" height="48" viewBox="0 0 48 48" fill="none" xmlns="http://www.w3.org/2000/svg">
<path d="M25.2907 13.6507C25.4582 13.1246 26.0204 12.8331 26.5466 13.0003C27.0728 13.1677 27.3643 13.7309 27.197 14.2571L20.8024 34.3509C20.635 34.8772 20.0729 35.1687 19.5466 35.0013C19.0203 34.8338 18.7297 34.2707 18.8972 33.7444L25.2907 13.6507Z" fill="white"/>
<path d="M15.7927 17.011C16.1832 16.6208 16.8163 16.6207 17.2067 17.011C17.5969 17.4015 17.5969 18.0346 17.2067 18.4251L11.3278 24.304L17.2067 30.1829C17.5967 30.5735 17.5971 31.2066 17.2067 31.597C16.8164 31.9873 16.1832 31.987 15.7927 31.597L9.20673 25.011C8.84071 24.6449 8.81811 24.0659 9.13837 23.6732L9.20673 23.597L15.7927 17.011Z" fill="white"/>
<path d="M30.7927 17.011C31.1831 16.6207 31.8162 16.6208 32.2067 17.011L38.7927 23.597L38.861 23.6732C39.1811 24.0659 39.1586 24.645 38.7927 25.011L32.2067 31.597C31.8163 31.9871 31.1831 31.9871 30.7927 31.597C30.4022 31.2065 30.4024 30.5735 30.7927 30.1829L36.6716 24.304L30.7927 18.4251C30.4024 18.0346 30.4022 17.4015 30.7927 17.011Z" fill="white"/>
</svg>
