<svg width="48" height="48" viewBox="0 0 48 48" fill="none" xmlns="http://www.w3.org/2000/svg">
<path d="M24 21.9336C24.5523 21.9336 25 22.3813 25 22.9336C25 23.4859 24.5523 23.9336 24 23.9336H18C17.4477 23.9336 17 23.4859 17 22.9336C17 22.3813 17.4477 21.9336 18 21.9336H24Z" fill="white"/>
<path d="M30 17.9336C30.5523 17.9336 31 18.3813 31 18.9336C31 19.4859 30.5523 19.9336 30 19.9336H18C17.4477 19.9336 17 19.4859 17 18.9336C17 18.3813 17.4477 17.9336 18 17.9336H30Z" fill="white"/>
<path fill-rule="evenodd" clip-rule="evenodd" d="M33 10.9336C35.2091 10.9336 37 12.7245 37 14.9336V26.9336C37 29.1427 35.2091 30.9336 33 30.9336H26.5L17.5547 36.8975C16.8902 37.3402 16.0003 36.8638 16 36.0654V30.9336H15C12.7909 30.9336 11 29.1427 11 26.9336V14.9336C11 12.7245 12.7909 10.9336 15 10.9336H33ZM15 12.9336C13.8954 12.9336 13 13.829 13 14.9336V26.9336C13 28.0382 13.8954 28.9336 15 28.9336H17C17.5523 28.9336 18 29.3813 18 29.9336V33.9336L26 28.9336H33C34.1046 28.9336 35 28.0382 35 26.9336V14.9336C35 13.829 34.1046 12.9336 33 12.9336H15Z" fill="white"/>
</svg>
