<svg width="48" height="48" viewBox="0 0 48 48" fill="none" xmlns="http://www.w3.org/2000/svg">
<path d="M20.4053 37.5C15.2484 37.5 12.5 34.7514 12.5 29.5943V17.8774C12.5 16.4328 13.2867 15.1757 14.4526 14.5V29.5943C14.4526 33.6729 16.3269 35.5472 20.4053 35.5472H31.5C30.8245 36.7137 29.5658 37.5 28.121 37.5L20.4053 37.5Z" fill="white"/>
<path fill-rule="evenodd" clip-rule="evenodd" d="M20.3 33.5C18.2013 33.5 16.5 31.7987 16.5 29.7V14.3C16.5 12.2013 18.2013 10.5 20.3 10.5H31.7C33.7987 10.5 35.5 12.2013 35.5 14.3V29.7C35.5 31.7987 33.7987 33.5 31.7 33.5H20.3ZM31.7 31.6C32.7493 31.6 33.6 30.7493 33.6 29.7V14.3C33.6 13.2507 32.7493 12.4 31.7 12.4H20.3C19.2507 12.4 18.4 13.2507 18.4 14.3V29.7C18.4 30.7493 19.2507 31.6 20.3 31.6H31.7Z" fill="white"/>
</svg>
