<svg width="48" height="48" viewBox="0 0 48 48" fill="none" xmlns="http://www.w3.org/2000/svg">
<path fill-rule="evenodd" clip-rule="evenodd" d="M19 20C19.5523 20 20 20.4477 20 21V24.1738C21.1647 24.5859 22 25.6941 22 27C22 28.3057 21.1645 29.413 20 29.8252V31C20 31.5523 19.5523 32 19 32C18.4477 32 18 31.5523 18 31V29.8252C16.8355 29.413 16 28.3057 16 27C16 25.6941 16.8353 24.5859 18 24.1738V21C18 20.4477 18.4477 20 19 20ZM19 26C18.4477 26 18 26.4477 18 27C18 27.5523 18.4477 28 19 28C19.5523 28 20 27.5523 20 27C20 26.4477 19.5523 26 19 26Z" fill="white"/>
<path fill-rule="evenodd" clip-rule="evenodd" d="M29 20C29.5523 20 30 20.4477 30 21V22.1738C31.1647 22.5859 32 23.6941 32 25C32 26.3057 31.1645 27.413 30 27.8252V31C30 31.5523 29.5523 32 29 32C28.4477 32 28 31.5523 28 31V27.8252C26.8355 27.413 26 26.3057 26 25C26 23.6941 26.8353 22.5859 28 22.1738V21C28 20.4477 28.4477 20 29 20ZM29 24C28.4477 24 28 24.4477 28 25C28 25.5523 28.4477 26 29 26C29.5523 26 30 25.5523 30 25C30 24.4477 29.5523 24 29 24Z" fill="white"/>
<path fill-rule="evenodd" clip-rule="evenodd" d="M32 12C34.2091 12 36 13.7909 36 16V32C36 34.2091 34.2091 36 32 36H16C13.7909 36 12 34.2091 12 32V16C12 13.7909 13.7909 12 16 12H32ZM14 32C14 33.1046 14.8954 34 16 34H32C33.1046 34 34 33.1046 34 32V18H14V32Z" fill="white"/>
</svg>
