<svg width="48" height="48" viewBox="0 0 48 48" fill="none" xmlns="http://www.w3.org/2000/svg">
<path d="M24 27C24.5523 27 25 27.4477 25 28V29H33C33.5523 29 34 29.4477 34 30C34 30.5523 33.5523 31 33 31H25V32C25 32.5523 24.5523 33 24 33C23.4477 33 23 32.5523 23 32V28C23 27.4477 23.4477 27 24 27Z" fill="white"/>
<path d="M20 29C20.5523 29 21 29.4477 21 30C21 30.5523 20.5523 31 20 31H15C14.4477 31 14 30.5523 14 30C14 29.4477 14.4477 29 15 29H20Z" fill="white"/>
<path d="M20 21C20.5523 21 21 21.4477 21 22V26C21 26.5523 20.5523 27 20 27C19.4477 27 19 26.5523 19 26V25H15C14.4477 25 14 24.5523 14 24C14 23.4477 14.4477 23 15 23H19V22C19 21.4477 19.4477 21 20 21Z" fill="white"/>
<path d="M33 23C33.5523 23 34 23.4477 34 24C34 24.5523 33.5523 25 33 25H24C23.4477 25 23 24.5523 23 24C23 23.4477 23.4477 23 24 23H33Z" fill="white"/>
<path d="M29 15C29.5523 15 30 15.4477 30 16V17H33C33.5523 17 34 17.4477 34 18C34 18.5523 33.5523 19 33 19H30V20C30 20.5523 29.5523 21 29 21C28.4477 21 28 20.5523 28 20V16C28 15.4477 28.4477 15 29 15Z" fill="white"/>
<path d="M25 17C25.5523 17 26 17.4477 26 18C26 18.5523 25.5523 19 25 19H15C14.4477 19 14 18.5523 14 18C14 17.4477 14.4477 17 15 17H25Z" fill="white"/>
</svg>
