<svg width="48" height="48" viewBox="0 0 48 48" fill="none" xmlns="http://www.w3.org/2000/svg">
<path d="M35 27C35.5523 27 36 27.4477 36 28C36 28.5523 35.5523 29 35 29H13C12.4477 29 12 28.5523 12 28C12 27.4477 12.4477 27 13 27H35Z" fill="#D9D9D9"/>
<path d="M35 23C35.5523 23 36 23.4477 36 24C36 24.5523 35.5523 25 35 25H13C12.4477 25 12 24.5523 12 24C12 23.4477 12.4477 23 13 23H35Z" fill="#D9D9D9"/>
<path d="M35 19C35.5523 19 36 19.4477 36 20C36 20.5523 35.5523 21 35 21H13C12.4477 21 12 20.5523 12 20C12 19.4477 12.4477 19 13 19H35Z" fill="#D9D9D9"/>
<path d="M24 35.9996C24.3241 36.006 24.5759 35.9277 24.793 35.7106L27.7079 32.7004C28.0984 32.3099 28.0984 31.6769 27.7079 31.2864C27.3174 30.8959 26.6844 30.8959 26.2938 31.2864L24 33.4933L21.7069 31.2864C21.3164 30.8959 20.6833 30.896 20.2928 31.2864C19.9024 31.6769 19.9023 32.3099 20.2928 32.7004L23.207 35.7106C23.4242 35.9277 23.7346 35.9944 24 35.9996Z" fill="#D9D9D9"/>
<path d="M24 12.0004C24.3241 11.994 24.5759 12.0723 24.793 12.2894L27.7079 15.2996C28.0984 15.6901 28.0984 16.3231 27.7079 16.7136C27.3174 17.1041 26.6844 17.1041 26.2938 16.7136L24 14.5067L21.7069 16.7136C21.3164 17.1041 20.6833 17.104 20.2928 16.7136C19.9024 16.3231 19.9023 15.6901 20.2928 15.2996L23.207 12.2894C23.4242 12.0723 23.7346 12.0056 24 12.0004Z" fill="#D9D9D9"/>
</svg>
