<svg width="48" height="48" viewBox="0 0 48 48" fill="none" xmlns="http://www.w3.org/2000/svg">
<path fill-rule="evenodd" clip-rule="evenodd" d="M33.8263 14.1737C35.3912 15.7386 35.3912 18.2758 33.8263 19.8407L20.3671 33.2999L14.2664 34.9636C13.5185 35.1675 12.8325 34.4815 13.0364 33.7336L14.7001 27.6329L28.1593 14.1737C29.7242 12.6088 32.2614 12.6088 33.8263 14.1737ZM15.4085 31.1747L14.7001 33.2999L16.8253 32.5915L15.4085 31.1747ZM26.0342 19.1323L16.8253 28.3412C16.434 28.7325 16.434 29.3668 16.8253 29.758L18.2413 31.174C18.6325 31.5653 19.2668 31.5652 19.6581 31.174L28.8677 21.9658L26.0342 19.1323ZM32.4096 15.5904C31.6274 14.8084 30.3591 14.8079 29.5767 15.5897L27.4509 17.7156L30.2844 20.5491L32.4096 18.4239C33.1919 17.6416 33.1919 16.3728 32.4096 15.5904Z" fill="white"/>
</svg>
