<svg width="48" height="48" viewBox="0 0 48 48" fill="none" xmlns="http://www.w3.org/2000/svg">
<path d="M31 24C31.5175 24.0002 31.9438 24.3934 31.9951 24.8975C31.9985 24.9312 32 24.9654 32 25V30C32 30.0346 31.9985 30.0688 31.9951 30.1025C31.9472 30.5729 31.5728 30.9471 31.1025 30.9951L31 31H24.3545L24.7158 31.3584C25.0945 31.734 25.0946 32.3432 24.7158 32.7188C24.3368 33.0941 23.7218 33.0941 23.3428 32.7188L21.333 30.7256C21.3167 30.7115 21.2997 30.697 21.2842 30.6816C21.0621 30.4614 20.9704 30.1615 21.0088 29.875C21.0352 29.6715 21.1265 29.4747 21.2842 29.3184C21.2959 29.3068 21.3091 29.296 21.3213 29.2852L23.3428 27.2812C23.7218 26.9059 24.3368 26.9059 24.7158 27.2812C25.0946 27.6568 25.0945 28.266 24.7158 28.6416L24.3545 29H30V26H28C27.4477 26 27 25.5523 27 25C27 24.4477 27.4477 24 28 24H31Z" fill="white"/>
<path fill-rule="evenodd" clip-rule="evenodd" d="M32 12C34.2091 12 36 13.7909 36 16V32C36 34.2091 34.2091 36 32 36H16C13.7909 36 12 34.2091 12 32V16C12 13.7909 13.7909 12 16 12H32ZM16 14C14.8954 14 14 14.8954 14 16V32C14 33.1046 14.8954 34 16 34H32C33.1046 34 34 33.1046 34 32V16C34 14.8954 33.1046 14 32 14H16Z" fill="white"/>
</svg>
