<svg width="48" height="48" viewBox="0 0 48 48" fill="none" xmlns="http://www.w3.org/2000/svg">
<path d="M32 12C34.2091 12 36 13.7909 36 16V32C36 34.2091 34.2091 36 32 36H16C13.7909 36 12 34.2091 12 32V16C12 13.7909 13.7909 12 16 12H32ZM16 14C14.8954 14 14 14.8954 14 16V32C14 33.1046 14.8954 34 16 34H32C33.1046 34 34 33.1046 34 32V16C34 14.8954 33.1046 14 32 14H16ZM29.3633 26.5352C29.7537 26.1448 30.3868 26.145 30.7773 26.5352C31.1677 26.9257 31.1678 27.5597 30.7773 27.9502L27.9492 30.7783C27.5588 31.1685 26.9256 31.1685 26.5352 30.7783L23.707 27.9502C23.3165 27.5597 23.3166 26.9257 23.707 26.5352C24.0976 26.145 24.7307 26.1448 25.1211 26.5352L27.2422 28.6572L29.3633 26.5352ZM22 22C22.5523 22 23 22.4477 23 23C23 23.5523 22.5523 24 22 24H18C17.4477 24 17 23.5523 17 23C17 22.4477 17.4477 22 18 22H22ZM30 17C30.5523 17 31 17.4477 31 18C31 18.5523 30.5523 19 30 19H18C17.4477 19 17 18.5523 17 18C17 17.4477 17.4477 17 18 17H30Z" fill="white"/>
</svg>
