<svg width="13" height="13" viewBox="0 0 13 13" fill="none" xmlns="http://www.w3.org/2000/svg">
<path fill-rule="evenodd" clip-rule="evenodd" d="M6.5 0C10.0899 0 13 2.91015 13 6.5C13 10.0899 10.0899 13 6.5 13C2.91015 13 0 10.0899 0 6.5C0 2.91015 2.91015 0 6.5 0ZM6.5 1.3C3.62812 1.3 1.3 3.62812 1.3 6.5C1.3 9.37188 3.62812 11.7 6.5 11.7C9.37188 11.7 11.7 9.37188 11.7 6.5C11.7 3.62812 9.37188 1.3 6.5 1.3Z" fill="white"/>
<path d="M7.92456 4.2481C8.1784 3.99426 8.58996 3.99426 8.8438 4.2481C9.09764 4.50194 9.09764 4.91349 8.8438 5.16734L7.46494 6.54619L8.8438 7.92505C9.09764 8.17889 9.09764 8.59045 8.8438 8.84429C8.58996 9.09813 8.1784 9.09813 7.92456 8.84429L6.5457 7.46543L5.16684 8.84429C4.913 9.09813 4.50145 9.09813 4.24761 8.84429C3.99377 8.59045 3.99377 8.17889 4.24761 7.92505L5.62646 6.54619L4.24761 5.16734C3.99377 4.91349 3.99377 4.50194 4.24761 4.2481C4.50145 3.99426 4.913 3.99426 5.16684 4.2481L6.5457 5.62696L7.92456 4.2481Z" fill="white"/>
</svg>
