<svg width="48" height="48" viewBox="0 0 48 48" fill="none" xmlns="http://www.w3.org/2000/svg">
<path fill-rule="evenodd" clip-rule="evenodd" d="M32 17C34.2091 17 36 18.7909 36 21V32C36 34.2091 34.2091 36 32 36H16C13.7909 36 12 34.2091 12 32L12 21C12 18.7909 13.7909 17 16 17H18V14C18 12.8954 18.8954 12 20 12H28C29.1046 12 30 12.8954 30 14V17H32ZM28 17V15C28 14.4477 27.5523 14 27 14H21C20.4477 14 20 14.4477 20 15V17H28ZM14 32C14 33.1046 14.8954 34 16 34H32C33.1046 34 34 33.1046 34 32V25H31C31 25.5523 30.5523 26 30 26H28C27.4477 26 27 25.5523 27 25H21C21 25.5523 20.5523 26 20 26H18C17.4477 26 17 25.5523 17 25H14V32ZM16 19C14.8954 19 14 19.8954 14 21V23H17C17 22.4477 17.4477 22 18 22H20C20.5523 22 21 22.4477 21 23H27C27 22.4477 27.4477 22 28 22H30C30.5523 22 31 22.4477 31 23H34V21C34 19.8954 33.1046 19 32 19H16Z" fill="white"/>
</svg>
