<svg width="48" height="48" viewBox="0 0 48 48" fill="none" xmlns="http://www.w3.org/2000/svg">
<path fill-rule="evenodd" clip-rule="evenodd" d="M26 17C26.5523 17 27 17.4477 27 18V21H30C30.5523 21 31 21.4477 31 22C31 22.5523 30.5523 23 30 23H27V25H30C30.5523 25 31 25.4477 31 26C31 26.5523 30.5523 27 30 27H27V30C27 30.5523 26.5523 31 26 31C25.4477 31 25 30.5523 25 30V27H23V30C23 30.5523 22.5523 31 22 31C21.4477 31 21 30.5523 21 30V27H18C17.4477 27 17 26.5523 17 26C17 25.4477 17.4477 25 18 25H21V23H18C17.4477 23 17 22.5523 17 22C17 21.4477 17.4477 21 18 21H21V18C21 17.4477 21.4477 17 22 17C22.5523 17 23 17.4477 23 18V21H25V18C25 17.4477 25.4477 17 26 17ZM23 25H25V23H23V25Z" fill="white"/>
<path fill-rule="evenodd" clip-rule="evenodd" d="M32 12C34.2091 12 36 13.7909 36 16V32C36 34.2091 34.2091 36 32 36H16C13.7909 36 12 34.2091 12 32V16C12 13.7909 13.7909 12 16 12H32ZM16 14C14.8954 14 14 14.8954 14 16V32C14 33.1046 14.8954 34 16 34H32C33.1046 34 34 33.1046 34 32V16C34 14.8954 33.1046 14 32 14H16Z" fill="white"/>
</svg>
