<svg width="48" height="48" viewBox="0 0 48 48" fill="none" xmlns="http://www.w3.org/2000/svg">
<path fill-rule="evenodd" clip-rule="evenodd" d="M16.0514 37.0743C15.9174 37.208 15.7192 37.255 15.5397 37.1952L10.2364 35.4274C9.88402 35.3098 9.77854 34.8623 10.0409 34.5994L13.7118 30.9286L13.0047 30.2215C12.6142 29.8309 12.6142 29.1978 13.0047 28.8072L15.126 26.6859L14.4825 26.0423C14.0678 25.6276 14.0976 24.9466 14.5467 24.5694L30.6872 11.0115C31.0844 10.6781 31.6705 10.7035 32.0372 11.0702L37.8115 16.8444C38.1781 17.2111 38.2035 17.7973 37.8702 18.1944L24.3122 34.335C23.935 34.784 23.254 34.8138 22.8393 34.3992L22.1971 33.757L20.0758 35.8783C19.6853 36.2688 19.0521 36.2688 18.6616 35.8783L17.9545 35.1712L16.0514 37.0743ZM13.2906 34.1782C13.1595 34.3095 13.2121 34.5328 13.388 34.5918L14.979 35.1222C15.0687 35.1521 15.1682 35.1289 15.2351 35.0621L16.5402 33.757L15.126 32.3428L13.2906 34.1782ZM15.4796 29.1608C15.2843 29.3561 15.2843 29.6726 15.4796 29.8679L19.0151 33.4034C19.2104 33.5987 19.527 33.5987 19.7222 33.4034L20.7829 32.3428L16.5402 28.1001L15.4796 29.1608ZM31.7071 13.5685C31.5263 13.3878 31.2382 13.3726 31.0394 13.5333L16.9718 24.9216C16.7411 25.1084 16.7226 25.454 16.9325 25.6639L23.2177 31.9492C23.4276 32.159 23.774 32.1412 23.9607 31.9105L35.3483 17.8423C35.509 17.6434 35.4939 17.3553 35.3131 17.1745L31.7071 13.5685Z" fill="#D9D9D9"/>
</svg>
