<svg width="48" height="48" viewBox="0 0 48 48" fill="none" xmlns="http://www.w3.org/2000/svg">
<path fill-rule="evenodd" clip-rule="evenodd" d="M28 16C29.6569 16 31 17.3431 31 19C31 20.6569 29.6569 22 28 22C26.3431 22 25 20.6569 25 19C25 17.3431 26.3431 16 28 16ZM28 18C27.4477 18 27 18.4477 27 19C27 19.5523 27.4477 20 28 20C28.5523 20 29 19.5523 29 19C29 18.4477 28.5523 18 28 18Z" fill="white"/>
<path fill-rule="evenodd" clip-rule="evenodd" d="M32 12C34.2091 12 36 13.7909 36 16V32C36 34.2091 34.2091 36 32 36H16C13.7909 36 12 34.2091 12 32V16C12 13.7909 13.7909 12 16 12H32ZM19.707 24.1211C19.3165 23.7306 18.6835 23.7306 18.293 24.1211L14 28.4141V32C14 33.1046 14.8954 34 16 34H17.5859L23.5859 28L19.707 24.1211ZM28.707 27.1211C28.3165 26.7306 27.6835 26.7306 27.293 27.1211L20.4141 34H32C32.9756 34 33.7865 33.3012 33.9629 32.377L28.707 27.1211ZM16 14C14.8954 14 14 14.8954 14 16V25.5859L16.8789 22.707C18.0505 21.5355 19.9495 21.5355 21.1211 22.707L25 26.5859L25.8789 25.707C27.0505 24.5355 28.9495 24.5355 30.1211 25.707L34 29.5859V16C34 14.8954 33.1046 14 32 14H16Z" fill="white"/>
</svg>
