<svg width="48" height="48" viewBox="0 0 48 48" fill="none" xmlns="http://www.w3.org/2000/svg">
<path d="M30.5 27C31.0523 27 31.5 27.4477 31.5 28C31.5 28.5523 31.0523 29 30.5 29H17.5C16.9477 29 16.5 28.5523 16.5 28C16.5 27.4477 16.9477 27 17.5 27H30.5Z" fill="white"/>
<path d="M18.5 23C19.0523 23 19.5 23.4477 19.5 24C19.5 24.5523 19.0523 25 18.5 25H17.5C16.9477 25 16.5 24.5523 16.5 24C16.5 23.4477 16.9477 23 17.5 23H18.5Z" fill="white"/>
<path d="M30.5 23C31.0523 23 31.5 23.4477 31.5 24C31.5 24.5523 31.0523 25 30.5 25H23.5C22.9477 25 22.5 24.5523 22.5 24C22.5 23.4477 22.9477 23 23.5 23H30.5Z" fill="white"/>
<path d="M18.5 19C19.0523 19 19.5 19.4477 19.5 20C19.5 20.5523 19.0523 21 18.5 21H17.5C16.9477 21 16.5 20.5523 16.5 20C16.5 19.4477 16.9477 19 17.5 19H18.5Z" fill="white"/>
<path d="M24.5 19C25.0523 19 25.5 19.4477 25.5 20C25.5 20.5523 25.0523 21 24.5 21H23.5C22.9477 21 22.5 20.5523 22.5 20C22.5 19.4477 22.9477 19 23.5 19H24.5Z" fill="white"/>
<path d="M30.5 19C31.0523 19 31.5 19.4477 31.5 20C31.5 20.5523 31.0523 21 30.5 21H29.5C28.9477 21 28.5 20.5523 28.5 20C28.5 19.4477 28.9477 19 29.5 19H30.5Z" fill="white"/>
<path fill-rule="evenodd" clip-rule="evenodd" d="M33.5 15C34.6046 15 35.5 15.8954 35.5 17V31C35.5 32.1046 34.6046 33 33.5 33H14.5C13.3954 33 12.5 32.1046 12.5 31V17C12.5 15.8954 13.3954 15 14.5 15H33.5ZM15.5 17C14.9477 17 14.5 17.4477 14.5 18V30C14.5 30.5523 14.9477 31 15.5 31H32.5C33.0523 31 33.5 30.5523 33.5 30V18C33.5 17.4477 33.0523 17 32.5 17H15.5Z" fill="white"/>
</svg>
