<svg width="48" height="48" viewBox="0 0 48 48" fill="none" xmlns="http://www.w3.org/2000/svg">
<path d="M22 19C22.5523 19 23 19.4477 23 20C23 20.5523 22.5523 21 22 21H21C19.3431 21 18 22.3431 18 24C18 25.6569 19.3431 27 21 27H22C22.5523 27 23 27.4477 23 28C23 28.5523 22.5523 29 22 29H21C18.2386 29 16 26.7614 16 24C16 21.2386 18.2386 19 21 19H22Z" fill="white"/>
<path d="M27 19C29.7614 19 32 21.2386 32 24C32 26.7614 29.7614 29 27 29H26C25.4477 29 25 28.5523 25 28C25 27.4477 25.4477 27 26 27H27C28.6569 27 30 25.6569 30 24C30 22.3431 28.6569 21 27 21H26C25.4477 21 25 20.5523 25 20C25 19.4477 25.4477 19 26 19H27Z" fill="white"/>
<path d="M27 23C27.5523 23 28 23.4477 28 24C28 24.5523 27.5523 25 27 25H21C20.4477 25 20 24.5523 20 24C20 23.4477 20.4477 23 21 23H27Z" fill="white"/>
<path fill-rule="evenodd" clip-rule="evenodd" d="M32 12C34.2091 12 36 13.7909 36 16V32C36 34.2091 34.2091 36 32 36H16C13.7909 36 12 34.2091 12 32V16C12 13.7909 13.7909 12 16 12H32ZM16 14C14.8954 14 14 14.8954 14 16V32C14 33.1046 14.8954 34 16 34H32C33.1046 34 34 33.1046 34 32V16C34 14.8954 33.1046 14 32 14H16Z" fill="white"/>
</svg>
