<svg width="48" height="48" viewBox="0 0 48 48" fill="none" xmlns="http://www.w3.org/2000/svg">
<path d="M19 16C19.5523 16 20 16.4477 20 17C20 17.5523 19.5523 18 19 18H16C12.6863 18 10 20.6863 10 24C10 27.3137 12.6863 30 16 30H19C19.5523 30 20 30.4477 20 31C20 31.5523 19.5523 32 19 32H16C11.5817 32 8 28.4183 8 24C8 19.5817 11.5817 16 16 16H19Z" fill="white"/>
<path d="M32 16C36.4183 16 40 19.5817 40 24C40 28.4183 36.4183 32 32 32H29C28.4477 32 28 31.5523 28 31C28 30.4477 28.4477 30 29 30H32C35.3137 30 38 27.3137 38 24C38 20.6863 35.3137 18 32 18H29C28.4477 18 28 17.5523 28 17C28 16.4477 28.4477 16 29 16H32Z" fill="white"/>
<path d="M33 23C33.5523 23 34 23.4477 34 24C34 24.5523 33.5523 25 33 25H15C14.4477 25 14 24.5523 14 24C14 23.4477 14.4477 23 15 23H33Z" fill="white"/>
</svg>
