<svg width="48" height="48" viewBox="0 0 48 48" fill="none" xmlns="http://www.w3.org/2000/svg">
<path d="M19 28C19.5523 28 20 28.4477 20 29V31C20 31.5523 19.5523 32 19 32H17C16.4477 32 16 31.5523 16 31V29C16 28.4477 16.4477 28 17 28H19Z" fill="white"/>
<path d="M31 29C31.5523 29 32 29.4477 32 30C32 30.5523 31.5523 31 31 31H23C22.4477 31 22 30.5523 22 30C22 29.4477 22.4477 29 23 29H31Z" fill="white"/>
<path d="M19 22C19.5523 22 20 22.4477 20 23V25C20 25.5523 19.5523 26 19 26H17C16.4477 26 16 25.5523 16 25V23C16 22.4477 16.4477 22 17 22H19Z" fill="white"/>
<path d="M31 23C31.5523 23 32 23.4477 32 24C32 24.5523 31.5523 25 31 25H23C22.4477 25 22 24.5523 22 24C22 23.4477 22.4477 23 23 23H31Z" fill="white"/>
<path d="M19 16C19.5523 16 20 16.4477 20 17V19C20 19.5523 19.5523 20 19 20H17C16.4477 20 16 19.5523 16 19V17C16 16.4477 16.4477 16 17 16H19Z" fill="white"/>
<path d="M31 17C31.5523 17 32 17.4477 32 18C32 18.5523 31.5523 19 31 19H23C22.4477 19 22 18.5523 22 18C22 17.4477 22.4477 17 23 17H31Z" fill="white"/>
<path fill-rule="evenodd" clip-rule="evenodd" d="M32 12C34.2091 12 36 13.7909 36 16V32C36 34.2091 34.2091 36 32 36H16C13.7909 36 12 34.2091 12 32V16C12 13.7909 13.7909 12 16 12H32ZM16 14C14.8954 14 14 14.8954 14 16V32C14 33.1046 14.8954 34 16 34H32C33.1046 34 34 33.1046 34 32V16C34 14.8954 33.1046 14 32 14H16Z" fill="white"/>
</svg>
