<svg width="48" height="48" viewBox="0 0 48 48" fill="none" xmlns="http://www.w3.org/2000/svg">
<path d="M28.1865 13.0391C28.7387 13.0392 29.1865 13.4869 29.1865 14.0391V31.9531L31.9258 29.4707C32.357 29.1257 32.987 29.1957 33.332 29.627C33.6769 30.0582 33.607 30.6882 33.1758 31.0332L28.8359 34.7568C28.4619 35.0774 27.9097 35.0778 27.5352 34.7578L23.1758 31.0332C22.7449 30.6883 22.675 30.0581 23.0195 29.627C23.3645 29.1958 23.9945 29.1259 24.4258 29.4707L27.1865 31.9531V14.0391C27.1865 13.4868 27.6343 13.0392 28.1865 13.0391Z" fill="white"/>
<path fill-rule="evenodd" clip-rule="evenodd" d="M20.2793 13.0039C21.4553 13.0039 22.4637 13.2157 23.3037 13.6396C24.1516 14.0557 24.759 14.6882 25.127 15.5361C25.3109 15.9361 25.4276 16.3718 25.4756 16.8438C25.5236 17.3077 25.5469 17.7957 25.5469 18.3076V25.376C25.5468 25.8994 25.123 26.324 24.5996 26.3242C24.0761 26.3242 23.6514 25.8995 23.6514 25.376V24.3242C23.6514 24.3242 22.923 25.3439 22.043 25.8799C21.1711 26.4158 20.1073 26.6836 18.8516 26.6836C17.8836 26.6836 17.071 26.5082 16.415 26.1562C15.7672 25.7963 15.2754 25.3241 14.9395 24.7402C14.6115 24.1563 14.4473 23.5162 14.4473 22.8203C14.4473 22.1403 14.5751 21.5517 14.8311 21.0557C15.0951 20.5517 15.4636 20.1356 15.9355 19.8076C16.4074 19.4718 16.9712 19.2076 17.627 19.0156C18.243 18.8476 18.9314 18.704 19.6914 18.584C20.4594 18.456 21.2356 18.3403 22.0195 18.2363C22.7926 18.1338 23.4288 18.0416 23.4463 18.0391C23.4463 17.1992 23.2389 16.3762 22.751 15.8242C22.271 15.2722 21.4389 14.9961 20.2549 14.9961C19.471 14.9962 18.7833 15.1762 18.1914 15.5361C17.8792 15.7243 17.6162 15.9767 17.4023 16.293C17.0704 16.7836 16.4949 17.1252 15.9277 16.9541C15.3712 16.7861 15.0378 16.1962 15.2969 15.6758C15.6374 14.9919 16.118 14.4249 16.7393 13.9756C17.6352 13.3277 18.8154 13.0039 20.2793 13.0039ZM22.1152 20.0361C21.4433 20.1241 20.807 20.2202 20.207 20.3242C19.6071 20.4202 19.0668 20.5359 18.5869 20.6719C18.235 20.7839 17.9027 20.9276 17.5908 21.1035C17.2869 21.2795 17.0396 21.5082 16.8477 21.7881C16.6637 22.06 16.5713 22.3997 16.5713 22.8076C16.5713 23.1594 16.6591 23.4956 16.835 23.8154C17.0189 24.1353 17.299 24.3957 17.6748 24.5957C18.0587 24.7957 18.559 24.8955 19.1748 24.8955C19.9426 24.8955 20.6071 24.7602 21.167 24.4883C21.735 24.2083 22.1912 23.8435 22.5352 23.3955C22.879 22.9397 23.103 22.444 23.207 21.9082C23.327 21.5083 23.3914 21.0641 23.3994 20.5762C23.4154 20.0802 23.4229 19.8613 23.4229 19.8613C23.4055 19.8637 22.7779 19.9494 22.1152 20.0361Z" fill="white"/>
</svg>
