<svg width="48" height="48" viewBox="0 0 48 48" fill="none" xmlns="http://www.w3.org/2000/svg">
<path d="M26.3584 20C26.8853 20 27.3549 20.0743 27.7666 20.2236C27.8983 20.2734 28.0056 20.3768 28.0879 20.5332C28.1701 20.6824 28.2109 20.8495 28.2109 21.0342V21.5576C28.2109 21.6996 28.1644 21.8132 28.0713 21.8984C27.9835 21.9767 27.8842 21.9912 27.7744 21.9414C27.2859 21.7352 26.8412 21.6318 26.4404 21.6318C25.9903 21.6319 25.7656 21.8349 25.7656 22.2402C25.7657 22.5957 25.9497 22.8441 26.3174 22.9863C27.0858 23.2779 27.6209 23.6269 27.9229 24.0322C28.2247 24.4375 28.376 24.9779 28.376 25.6533C28.376 27.2178 27.5929 28 26.0283 28C25.5289 27.9999 25.076 27.893 24.6699 27.6797C24.5438 27.6157 24.442 27.5023 24.3652 27.3389C24.2939 27.1754 24.2588 26.9975 24.2588 26.8057V26.2617C24.2588 26.1268 24.3021 26.0269 24.3896 25.9629C24.4775 25.8989 24.5688 25.8953 24.6621 25.9521C25.0957 26.2151 25.5237 26.3466 25.9463 26.3467C26.4402 26.3467 26.6874 26.1335 26.6875 25.707C26.6875 25.5079 26.6491 25.3547 26.5723 25.248C26.4954 25.1414 26.3555 25.0453 26.1523 24.96C25.4222 24.6684 24.8952 24.3058 24.5713 23.8721C24.2529 23.4312 24.0938 22.8872 24.0938 22.2402C24.0938 21.5435 24.2858 20.9959 24.6699 20.5977C25.0597 20.1994 25.6228 20 26.3584 20Z" fill="white"/>
<path d="M31.29 20C31.7071 20 32.1024 20.0427 32.4756 20.1279C32.6128 20.1564 32.7233 20.2416 32.8057 20.3838C32.8935 20.526 32.9375 20.6901 32.9375 20.875V21.4717C32.9375 21.621 32.8902 21.7425 32.7969 21.835C32.7091 21.92 32.6106 21.941 32.501 21.8984C32.1606 21.7704 31.8255 21.707 31.4961 21.707C31.057 21.707 30.7138 21.902 30.4668 22.293C30.2198 22.677 30.0967 23.2462 30.0967 24C30.0967 24.7396 30.231 25.3124 30.5 25.7178C30.7689 26.1156 31.1283 26.3143 31.5781 26.3145C31.9239 26.3145 32.2592 26.2546 32.583 26.1338C32.6928 26.0911 32.792 26.1119 32.8799 26.1973C32.9731 26.2826 33.0195 26.4006 33.0195 26.5498V27.125C33.0195 27.3099 32.9755 27.474 32.8877 27.6162C32.8054 27.7583 32.6957 27.8436 32.5586 27.8721C32.1854 27.9574 31.7901 28 31.373 28C30.4398 28 29.712 27.6583 29.1904 26.9756C28.669 26.2929 28.4082 25.3012 28.4082 24C28.4082 22.7271 28.661 21.7418 29.166 21.0449C29.671 20.3484 30.379 20.0001 31.29 20Z" fill="white"/>
<path d="M16.2217 20.1064C16.3643 20.1064 16.4932 20.1601 16.6084 20.2666C16.7237 20.3661 16.8037 20.5013 16.8477 20.6719L17.959 24.6826C17.959 24.6897 17.9623 24.6934 17.9678 24.6934C17.9731 24.6933 17.9756 24.6896 17.9756 24.6826L19.0879 20.6719C19.1318 20.5013 19.2109 20.3661 19.3262 20.2666C19.4414 20.16 19.5703 20.1065 19.7129 20.1064H20.4795C20.6056 20.1066 20.7154 20.1673 20.8086 20.2881C20.9019 20.4089 20.9482 20.5513 20.9482 20.7148V27.2852C20.9482 27.4487 20.9019 27.5911 20.8086 27.7119C20.7154 27.8327 20.6056 27.8934 20.4795 27.8936H19.8779C19.7517 27.8935 19.6421 27.8327 19.5488 27.7119C19.4555 27.591 19.4082 27.4487 19.4082 27.2852V23.6377C19.4082 23.6306 19.4058 23.627 19.4004 23.627C19.3949 23.627 19.3926 23.6306 19.3926 23.6377L18.791 25.7275C18.7416 25.8981 18.6591 26.0369 18.5439 26.1436C18.4287 26.243 18.2998 26.2929 18.1572 26.293H17.7783C17.6356 26.293 17.5059 26.2431 17.3906 26.1436C17.2756 26.0369 17.1939 25.898 17.1445 25.7275L16.543 23.6377C16.543 23.6308 16.5403 23.6272 16.5352 23.627C16.5297 23.627 16.5264 23.6306 16.5264 23.6377V27.2852C16.5264 27.4486 16.48 27.5911 16.3867 27.7119C16.2934 27.8328 16.1829 27.8936 16.0566 27.8936H15.4893C15.363 27.8936 15.2525 27.8328 15.1592 27.7119C15.066 27.5911 15.0195 27.4486 15.0195 27.2852V20.7148C15.0195 20.5514 15.066 20.4089 15.1592 20.2881C15.2525 20.1672 15.363 20.1064 15.4893 20.1064H16.2217Z" fill="white"/>
<path d="M23.0625 20.1064C23.1887 20.1065 23.2983 20.1673 23.3916 20.2881C23.4849 20.409 23.5312 20.5513 23.5312 20.7148V27.2852C23.5312 27.4487 23.4849 27.591 23.3916 27.7119C23.2983 27.8327 23.1887 27.8935 23.0625 27.8936H22.1895C22.0632 27.8935 21.9537 27.8327 21.8604 27.7119C21.767 27.591 21.7197 27.4487 21.7197 27.2852V20.7148C21.7197 20.5513 21.767 20.409 21.8604 20.2881C21.9537 20.1673 22.0632 20.1065 22.1895 20.1064H23.0625Z" fill="white"/>
<path fill-rule="evenodd" clip-rule="evenodd" d="M32 12C34.2091 12 36 13.7909 36 16V32C36 34.2091 34.2091 36 32 36H16C13.7909 36 12 34.2091 12 32V16C12 13.7909 13.7909 12 16 12H32ZM16 14C14.8954 14 14 14.8954 14 16V32C14 33.1046 14.8954 34 16 34H32C33.1046 34 34 33.1046 34 32V16C34 14.8954 33.1046 14 32 14H16Z" fill="white"/>
</svg>
