<svg width="48" height="48" viewBox="0 0 48 48" fill="none" xmlns="http://www.w3.org/2000/svg">
<path d="M13.5 16C13.5 15.4477 13.9477 15 14.5 15H33.5C34.0523 15 34.5 15.4477 34.5 16C34.5 16.5523 34.0523 17 33.5 17H14.5C13.9477 17 13.5 16.5523 13.5 16Z" fill="white"/>
<path d="M13.5 24C13.5 23.4477 13.9477 23 14.5 23H33.5C34.0523 23 34.5 23.4477 34.5 24C34.5 24.5523 34.0523 25 33.5 25H14.5C13.9477 25 13.5 24.5523 13.5 24Z" fill="white"/>
<path d="M13.5 32C13.5 31.4477 13.9477 31 14.5 31H24.5C25.0523 31 25.5 31.4477 25.5 32C25.5 32.5523 25.0523 33 24.5 33H14.5C13.9477 33 13.5 32.5523 13.5 32Z" fill="white"/>
</svg>
