<svg width="48" height="48" viewBox="0 0 48 48" fill="none" xmlns="http://www.w3.org/2000/svg">
<path d="M15.7153 11C16.701 11 17.5 11.799 17.5 12.7847V17.7249C17.5 18.4291 16.9291 19 16.2249 19C15.5207 19 14.9498 18.4291 14.9498 17.7249V13.599C14.9498 13.5719 14.9278 13.55 14.9008 13.55C14.8911 13.55 14.8816 13.5529 14.8735 13.5583L14.0432 14.114C13.3843 14.555 12.5 14.0827 12.5 13.2899C12.5 12.955 12.669 12.6427 12.9494 12.4596L14.7394 11.2905C15.0296 11.1009 15.3687 11 15.7153 11Z" fill="white"/>
<path d="M14.7202 28C14.1148 28 13.6241 27.5092 13.6241 26.9039C13.6241 26.6183 13.7355 26.3441 13.9346 26.1394L15.9938 24.0231C16.151 23.8613 16.2854 23.7097 16.397 23.5684C16.5108 23.4245 16.5976 23.2768 16.6576 23.1252C16.7196 22.9737 16.7506 22.8054 16.7506 22.6204C16.7506 22.4175 16.7155 22.2441 16.6452 22.1002C16.5769 21.9563 16.4818 21.8459 16.3598 21.7688C16.2378 21.6891 16.0972 21.6493 15.938 21.6493C15.7787 21.6493 15.6381 21.6891 15.5161 21.7688C15.3962 21.8484 15.3031 21.9653 15.237 22.1195C15.1117 22.4114 14.8802 22.6821 14.5625 22.6821H14.3189C13.8666 22.6821 13.4851 22.3105 13.5835 21.8691C13.6335 21.645 13.706 21.4382 13.8009 21.2486C14.0014 20.8478 14.2847 20.5395 14.6507 20.3237C15.0167 20.1079 15.4458 20 15.938 20C16.4467 20 16.8871 20.1015 17.2593 20.3044C17.6336 20.5048 17.922 20.7874 18.1247 21.1522C18.3294 21.517 18.4318 21.9448 18.4318 22.4355C18.4318 22.7386 18.3811 23.0405 18.2798 23.341C18.1785 23.639 17.9965 23.9692 17.7339 24.3314C17.4713 24.6936 17.098 25.1252 16.6141 25.6262L16.0279 26.2332C16.0219 26.2393 16.0186 26.2475 16.0186 26.2561C16.0186 26.2743 16.0334 26.289 16.0515 26.289H17.6445C18.117 26.289 18.5 26.672 18.5 27.1445C18.5 27.617 18.117 28 17.6445 28H14.7202Z" fill="white"/>
<path d="M15.9703 37C15.4913 37 15.0657 36.8948 14.6936 36.6844C14.3234 36.4715 14.0325 36.1787 13.8207 35.8061C13.7385 35.6616 13.6722 35.5087 13.6216 35.3474C13.4832 34.9061 13.876 34.5209 14.3385 34.5209H14.741C14.9748 34.5209 15.152 34.7218 15.2696 34.924C15.3408 35.0406 15.4378 35.1318 15.5605 35.1977C15.6833 35.2636 15.8238 35.2966 15.9821 35.2966C16.1346 35.2966 16.2691 35.2624 16.3859 35.1939C16.5027 35.1229 16.5938 35.0253 16.6591 34.9011C16.7244 34.7769 16.7561 34.635 16.7541 34.4753C16.7561 34.3181 16.7185 34.1787 16.6413 34.057C16.5661 33.9354 16.4602 33.8403 16.3236 33.7719C16.187 33.7034 16.0296 33.6692 15.8515 33.6692C15.5104 33.6692 15.2339 33.3927 15.2339 33.0516V32.8267C15.2339 32.4856 15.5104 32.2091 15.8515 32.2091C16.0158 32.2091 16.1603 32.1749 16.285 32.1065C16.4117 32.038 16.5096 31.943 16.5789 31.8213C16.6502 31.6996 16.6848 31.5602 16.6828 31.403C16.6848 31.251 16.6561 31.1166 16.5967 31C16.5374 30.8834 16.4542 30.7921 16.3473 30.7262C16.2424 30.6603 16.1207 30.6274 15.9821 30.6274C15.8317 30.6274 15.6971 30.6616 15.5783 30.73C15.4616 30.7985 15.3695 30.8935 15.3022 31.0152C15.1854 31.2264 15.0042 31.4335 14.7629 31.4335H14.4151C13.9759 31.4335 13.6037 31.0687 13.727 30.6471C13.7761 30.4791 13.842 30.3204 13.9246 30.1711C14.1285 29.8061 14.4075 29.5196 14.7619 29.3118C15.1162 29.1039 15.5229 29 15.9821 29C16.4315 29 16.8283 29.0976 17.1727 29.2928C17.5191 29.488 17.7893 29.7567 17.9833 30.0989C18.1792 30.4385 18.2762 30.8276 18.2743 31.2662C18.2782 31.7022 18.1614 32.0596 17.9239 32.3384C17.6949 32.6095 17.4061 32.7727 17.0573 32.8282C17.0401 32.8309 17.0272 32.8457 17.0272 32.8631C17.0272 32.8806 17.0402 32.8953 17.0574 32.8979C17.5333 32.97 17.8924 33.1612 18.1347 33.4715C18.3821 33.7858 18.5039 34.1812 18.4999 34.6578C18.5019 35.1141 18.395 35.5184 18.1792 35.8707C17.9655 36.2231 17.6676 36.4994 17.2856 36.6996C16.9055 36.8999 16.4671 37 15.9703 37Z" fill="white"/>
<path d="M20.5 15C20.5 14.4477 20.9477 14 21.5 14H34.5C35.0523 14 35.5 14.4477 35.5 15C35.5 15.5523 35.0523 16 34.5 16H21.5C20.9477 16 20.5 15.5523 20.5 15Z" fill="white"/>
<path d="M20.5 24C20.5 23.4477 20.9477 23 21.5 23H34.5C35.0523 23 35.5 23.4477 35.5 24C35.5 24.5523 35.0523 25 34.5 25H21.5C20.9477 25 20.5 24.5523 20.5 24Z" fill="white"/>
<path d="M20.5 33C20.5 32.4477 20.9477 32 21.5 32H34.5C35.0523 32 35.5 32.4477 35.5 33C35.5 33.5523 35.0523 34 34.5 34H21.5C20.9477 34 20.5 33.5523 20.5 33Z" fill="white"/>
</svg>
