<svg width="48" height="48" viewBox="0 0 48 48" fill="none" xmlns="http://www.w3.org/2000/svg">
<path d="M12.5552 23.2661C12.7163 22.8382 13.1563 22.582 13.6037 22.6551L13.6991 22.6759L17.4035 23.6795C17.9148 23.818 18.2183 24.349 18.0813 24.8656C17.9442 25.382 17.4186 25.6886 16.9074 25.5504L15.4797 25.1635C16.7411 27.6962 19.3367 29.4341 22.3343 29.4341C25.9489 29.4341 28.9774 26.907 29.7879 23.5064C29.9027 23.0253 30.3092 22.6542 30.799 22.6542C31.3734 22.6542 31.8265 23.1574 31.7061 23.7249C31.3819 25.2534 30.7011 26.6481 29.7552 27.8157L36.2193 34.3469C36.5935 34.7251 36.5936 35.3383 36.2193 35.7165C35.845 36.0946 35.2381 36.0945 34.8638 35.7165L28.3996 29.1853C26.7472 30.5511 24.6357 31.3712 22.3343 31.3712C18.6045 31.3712 15.3737 29.2184 13.789 26.0763L13.3846 27.6048C13.2475 28.1214 12.722 28.428 12.2107 28.2896C11.6994 28.151 11.3959 27.6201 11.5329 27.1035L12.5252 23.3617C12.5338 23.3293 12.5436 23.2968 12.5552 23.2661Z" fill="white"/>
<path d="M22.3343 12C25.9943 12 29.1736 14.0732 30.7887 17.1199L31.1856 15.6236C31.3228 15.1071 31.8483 14.8004 32.3596 14.9388C32.8708 15.0773 33.1742 15.6083 33.0373 16.1249L32.045 19.8677C32.0364 19.9 32.0266 19.9316 32.0151 19.9622C31.854 20.3903 31.414 20.6464 30.9666 20.5733L30.8711 20.5525L27.1667 19.5498C26.6555 19.4114 26.3522 18.8802 26.4889 18.3637C26.6259 17.8472 27.1516 17.5398 27.6629 17.678L29.1176 18.0715C27.832 15.6132 25.2775 13.9371 22.3343 13.9371C18.7199 13.9371 15.6913 16.4636 14.8806 19.8639C14.7658 20.3454 14.3588 20.717 13.8686 20.717C13.2942 20.7169 12.8413 20.2138 12.9615 19.6463C13.8884 15.2766 17.7325 12 22.3343 12Z" fill="white"/>
</svg>
