<svg width="48" height="48" viewBox="0 0 48 48" fill="none" xmlns="http://www.w3.org/2000/svg">
<path fill-rule="evenodd" clip-rule="evenodd" d="M21.6863 12C27.036 12 31.3727 16.3364 31.3727 21.6856C31.3727 24.0118 30.5517 26.1459 29.1847 27.8157L35.7164 34.3469C36.0945 34.7251 36.0946 35.3383 35.7164 35.7165C35.3382 36.0946 34.725 36.0945 34.3467 35.7165L27.815 29.1853C26.1454 30.5511 24.0118 31.3712 21.6863 31.3712C16.3367 31.3712 12 27.0348 12 21.6856C12 16.3364 16.3367 12 21.6863 12ZM21.6863 13.9371C17.4066 13.9371 13.9373 17.4062 13.9373 21.6856C13.9373 25.965 17.4066 29.4341 21.6863 29.4341C25.966 29.4341 29.4354 25.965 29.4354 21.6856C29.4354 17.4062 25.966 13.9371 21.6863 13.9371Z" fill="white"/>
</svg>
