<svg width="48" height="48" viewBox="0 0 48 48" fill="none" xmlns="http://www.w3.org/2000/svg">
<path fill-rule="evenodd" clip-rule="evenodd" d="M34.5332 10.9998C34.9237 10.6094 35.5567 10.6094 35.9473 10.9998C36.3377 11.3904 36.3377 12.0234 35.9473 12.4139L30.9883 17.3719C35.0677 19.4756 37.8685 22.8424 38.8183 24.0956C39.0453 24.3951 39.0617 24.7866 38.8555 25.1004C37.5991 27.011 32.6469 33.5858 24 33.5858C23.9605 33.5858 23.9211 33.5841 23.8818 33.5838C23.8633 33.584 23.8447 33.5858 23.8262 33.5858C23.7727 33.5858 23.7193 33.5818 23.666 33.5809C23.6099 33.5798 23.5538 33.5787 23.498 33.577C23.4432 33.575 23.3885 33.5741 23.334 33.5711C20.7252 33.4681 18.4687 32.7657 16.5635 31.7967L11.3613 36.9998C10.9708 37.3902 10.3377 37.3902 9.94725 36.9998C9.55686 36.6094 9.55693 35.9763 9.94725 35.5858L14.7793 30.7528L14.7773 30.7508L17.6494 27.8788L17.6504 27.8817L19.9512 25.5809L19.9502 25.578L24.8183 20.7098L24.8213 20.7108L27.1211 18.411L27.1181 18.41L29.0224 16.5057L29.0254 16.5067L34.5332 10.9998ZM26.6279 21.7323C27.367 22.4581 27.8262 23.4681 27.8262 24.5858C27.8261 26.7949 26.0352 28.5858 23.8262 28.5858C22.7085 28.5858 21.6984 28.1266 20.9726 27.3875L18.8525 29.5077C20.0248 30.6914 21.6155 31.4602 23.3857 31.5702C23.5506 31.5775 23.7173 31.5825 23.8857 31.5838C27.7242 31.5518 30.8261 28.4318 30.8262 24.5858C30.8262 22.6396 30.0311 20.8797 28.749 19.6112L26.6279 21.7323ZM31.7197 20.2606C32.4245 21.5442 32.8262 23.018 32.8262 24.5858C32.8261 26.3191 32.3344 27.937 31.4853 29.3104C34.5747 27.2749 36.1279 24.6076 36.1406 24.5858C36.136 24.5791 34.5042 22.2346 31.7197 20.2606Z" fill="white"/>
<path d="M24 15.5858C24.977 15.5858 25.9182 15.693 26.8213 15.8788L25.0107 17.6893C24.6458 17.6268 24.2716 17.5902 23.8896 17.5868C23.6259 17.5893 23.3655 17.6017 23.1084 17.6219C19.5796 17.9814 16.8262 20.9621 16.8262 24.5858C16.8262 24.9901 16.8628 25.3859 16.9287 25.7713L15.2812 27.4188C14.986 26.5281 14.8262 25.5756 14.8262 24.5858C14.8262 23.1835 15.1467 21.8558 15.7187 20.6727C13.2735 22.549 11.8594 24.5858 11.8594 24.5858C11.8681 24.6009 12.8333 26.2539 14.749 27.951L13.1562 29.5438C11.0541 27.8027 9.71615 25.9697 9.14452 25.1004C8.93828 24.7866 8.95466 24.3951 9.18162 24.0956C10.5557 22.2825 15.8016 16.0419 23.1933 15.6102C23.4024 15.5957 23.6134 15.5858 23.8262 15.5858C23.846 15.5858 23.8659 15.5866 23.8857 15.5868C23.9237 15.5864 23.9619 15.5858 24 15.5858Z" fill="white"/>
</svg>
