<svg width="48" height="48" viewBox="0 0 48 48" fill="none" xmlns="http://www.w3.org/2000/svg">
<path d="M30.4443 25C31.1399 25.4771 31.9476 26.235 32.3633 26.9316C32.7876 27.621 33 28.4513 33 29.4209C32.9999 30.663 32.6391 31.7802 31.918 32.7725C31.1966 33.7648 30.1608 34.5534 28.8115 35.1367C27.4623 35.7123 25.8456 36 23.9619 36C22.1883 36 20.6477 35.7385 19.3408 35.2158C18.034 34.6856 17.0075 33.9542 16.2607 33.0225C15.7901 32.4352 15.4484 31.7896 15.2373 31.085C15.0322 30.4002 15.6104 29.7842 16.3252 29.7842C16.9591 29.7845 17.4651 30.2797 17.6885 30.873C17.8617 31.3332 18.1204 31.7464 18.4629 32.1133C19.0569 32.7496 19.8289 33.235 20.7793 33.5684C21.7297 33.8941 22.7909 34.0566 23.9619 34.0566C25.2602 34.0566 26.415 33.8639 27.4248 33.4775C28.4429 33.0836 29.2404 32.5377 29.8174 31.8408C30.4028 31.1364 30.6962 30.3183 30.6963 29.3867C30.6963 28.599 30.4669 27.9394 30.0088 27.4092C29.5506 26.8713 28.909 26.4203 28.0859 26.0566C27.2714 25.6931 26.0775 25.2802 25 25H14C13.4477 25 13 24.5523 13 24C13 23.4477 13.4477 23 14 23H34C34.5523 23 35 23.4477 35 24C35 24.5523 34.5523 25 34 25H30.4443C30.3616 24.9416 30.5292 25.056 30.4443 25Z" fill="white"/>
<path d="M24.1914 12C25.812 12.0001 27.2459 12.2657 28.4932 12.7959C29.7406 13.3262 30.7302 14.0566 31.46 14.9883C31.933 15.5805 32.2652 16.2259 32.4561 16.9238C32.6343 17.576 32.0794 18.1471 31.4033 18.1475C30.7979 18.1475 30.3089 17.682 30.0986 17.1143C29.794 16.2919 29.2332 15.6058 28.417 15.0566C27.2799 14.2916 25.8495 13.9092 24.127 13.9092C22.9136 13.9092 21.8438 14.0947 20.9189 14.4658C20.0026 14.837 19.281 15.3528 18.7549 16.0117C18.2375 16.663 17.9786 17.4053 17.9785 18.2383C17.9785 18.8519 18.1278 19.3904 18.4248 19.8525C18.7086 20.2939 19.086 20.6761 19.5557 21H16.4551C15.9356 20.2314 15.6748 19.3415 15.6748 18.3291C15.6749 17.0793 16.0482 15.981 16.7949 15.0342C17.5502 14.0798 18.5683 13.3369 19.8496 12.8066C21.1395 12.2688 22.5875 12 24.1914 12Z" fill="white"/>
</svg>
