<svg width="48" height="48" viewBox="0 0 48 48" fill="none" xmlns="http://www.w3.org/2000/svg">
<path fill-rule="evenodd" clip-rule="evenodd" d="M32 12C34.2091 12 36 13.7909 36 16V32C36 34.2091 34.2091 36 32 36H16C13.7909 36 12 34.2091 12 32V16C12 13.7909 13.7909 12 16 12H32ZM25 34H32C33.1046 34 34 33.1046 34 32V29H25V34ZM14 32C14 33.1046 14.8954 34 16 34H23V29H14V32ZM25 27H34V22H25V27ZM14 27H23V22H14V27ZM16 14C14.8954 14 14 14.8954 14 16V20H34V16C34 14.8954 33.1046 14 32 14H16Z" fill="white"/>
</svg>
