<svg width="48" height="48" viewBox="0 0 48 48" fill="none" xmlns="http://www.w3.org/2000/svg">
<path d="M29.2031 22C30.3077 22 31.2031 22.8954 31.2031 24C31.2031 25.1046 30.3077 26 29.2031 26C28.0986 26 27.2031 25.1046 27.2031 24C27.2031 22.8954 28.0986 22 29.2031 22Z" fill="white"/>
<path fill-rule="evenodd" clip-rule="evenodd" d="M26.4336 13C27.5606 13 28.6355 13.4757 29.3936 14.3096L35.7568 21.3096C37.1438 22.8352 37.1438 25.1648 35.7568 26.6904L29.3936 33.6904C28.6355 34.5243 27.5606 35 26.4336 35H15.2031C12.994 35 11.2031 33.2091 11.2031 31V17C11.2031 14.7909 12.994 13 15.2031 13H26.4336ZM15.2031 15C14.0986 15 13.2031 15.8954 13.2031 17V31C13.2031 32.1046 14.0986 33 15.2031 33H26.168C26.7327 32.9999 27.2713 32.7613 27.6504 32.3428L33.9883 25.3428C34.6781 24.5808 34.6781 23.4192 33.9883 22.6572L27.6504 15.6572C27.2713 15.2387 26.7327 15.0001 26.168 15H15.2031Z" fill="white"/>
</svg>
