<svg width="48" height="48" viewBox="0 0 48 48" fill="none" xmlns="http://www.w3.org/2000/svg">
<path fill-rule="evenodd" clip-rule="evenodd" d="M17.5 29.5C18.0523 29.5 18.5 29.9477 18.5 30.5V35.5C18.5 36.0523 18.0523 36.5 17.5 36.5H12.5C11.9477 36.5 11.5 36.0523 11.5 35.5V30.5C11.5 29.9477 11.9477 29.5 12.5 29.5H17.5ZM13.5 34.5H16.5V31.5H13.5V34.5Z" fill="white"/>
<path d="M35.5 32C36.0523 32 36.5 32.4477 36.5 33C36.5 33.5523 36.0523 34 35.5 34H22.5C21.9477 34 21.5 33.5523 21.5 33C21.5 32.4477 21.9477 32 22.5 32H35.5Z" fill="white"/>
<path d="M17.5 20.5C18.0523 20.5 18.5 20.9477 18.5 21.5V26.5C18.5 27.0523 18.0523 27.5 17.5 27.5H12.5C11.9477 27.5 11.5 27.0523 11.5 26.5V21.5C11.5 20.9477 11.9477 20.5 12.5 20.5H17.5Z" fill="white"/>
<path d="M35.5 23C36.0523 23 36.5 23.4477 36.5 24C36.5 24.5523 36.0523 25 35.5 25H22.5C21.9477 25 21.5 24.5523 21.5 24C21.5 23.4477 21.9477 23 22.5 23H35.5Z" fill="white"/>
<path d="M17.5 11.5C18.0523 11.5 18.5 11.9477 18.5 12.5V17.5C18.5 18.0523 18.0523 18.5 17.5 18.5H12.5C11.9477 18.5 11.5 18.0523 11.5 17.5V12.5C11.5 11.9477 11.9477 11.5 12.5 11.5H17.5Z" fill="white"/>
<path d="M35.5 14C36.0523 14 36.5 14.4477 36.5 15C36.5 15.5523 36.0523 16 35.5 16H22.5C21.9477 16 21.5 15.5523 21.5 15C21.5 14.4477 21.9477 14 22.5 14H35.5Z" fill="white"/>
</svg>
