<svg width="48" height="48" viewBox="0 0 48 48" fill="none" xmlns="http://www.w3.org/2000/svg">
<path d="M14 13.5C14 12.9477 14.4477 12.5 15 12.5C15.5523 12.5 16 12.9477 16 13.5H32C32 12.9477 32.4477 12.5 33 12.5C33.5523 12.5 34 12.9477 34 13.5V15.5C34 16.0523 33.5523 16.5 33 16.5C32.4477 16.5 32 16.0523 32 15.5H25V33.5H26C26.5523 33.5 27 33.9477 27 34.5C27 35.0523 26.5523 35.5 26 35.5H22C21.4477 35.5 21 35.0523 21 34.5C21 33.9477 21.4477 33.5 22 33.5H23V15.5H16C16 16.0523 15.5523 16.5 15 16.5C14.4477 16.5 14 16.0523 14 15.5V13.5Z" fill="white"/>
</svg>
