<svg width="48" height="48" viewBox="0 0 48 48" fill="none" xmlns="http://www.w3.org/2000/svg">
<path d="M32.0769 34.1538C32.5867 34.1538 33 34.5671 33 35.0769C33 35.5867 32.5867 36 32.0769 36H15.9231C15.4133 36 15 35.5867 15 35.0769C15 34.5671 15.4133 34.1538 15.9231 34.1538H32.0769Z" fill="white"/>
<path d="M32.0944 12C32.5913 12 32.9941 12.4133 32.9941 12.9231V23.0769C32.9941 28.1749 28.966 32.3077 23.9971 32.3077C19.0281 32.3077 15 28.1749 15 23.0769V12.9231C15 12.4133 15.4028 12 15.8997 12C16.3966 12 16.7994 12.4133 16.7994 12.9231V23.0769C16.7994 27.1553 20.0219 30.4615 23.9971 30.4615C27.9722 30.4615 31.1947 27.1553 31.1947 23.0769V12.9231C31.1947 12.4133 31.5975 12 32.0944 12Z" fill="white"/>
</svg>
