<svg width="48" height="48" viewBox="0 0 48 48" fill="none" xmlns="http://www.w3.org/2000/svg">
<path fill-rule="evenodd" clip-rule="evenodd" d="M20.3486 20.9819C20.7712 20.9819 21.1488 21.248 21.291 21.646L25.6045 33.7231C25.8235 34.3363 25.3688 34.9817 24.7178 34.9819C24.3198 34.9819 23.9639 34.7317 23.8301 34.3569L22.625 30.9819H17.4824L16.2773 34.3569C16.1435 34.7317 15.7876 34.9819 15.3896 34.9819C14.7386 34.9817 14.2839 34.3363 14.5029 33.7231L18.8164 21.646C18.9585 21.248 19.3362 20.9819 19.7588 20.9819H20.3486ZM18.1963 28.9819H21.9111L20.0537 23.7817L18.1963 28.9819Z" fill="white"/>
<path d="M27.5351 13.2554C27.9097 12.9353 28.4619 12.9357 28.8359 13.2563L33.1758 16.98C33.607 17.325 33.6769 17.955 33.332 18.3862C32.987 18.8175 32.357 18.8875 31.9258 18.5425L29.1865 16.0601V33.9741C29.1865 34.5263 28.7387 34.974 28.1865 34.9741C27.6343 34.974 27.1865 34.5263 27.1865 33.9741V16.0601L24.4258 18.5425C23.9945 18.8873 23.3645 18.8174 23.0195 18.3862C22.675 17.9551 22.7449 17.3249 23.1758 16.98L27.5351 13.2554Z" fill="white"/>
</svg>
