<svg width="30" height="18" viewBox="0 0 30 18" fill="none" xmlns="http://www.w3.org/2000/svg">
<rect width="30" height="18" rx="1" fill="#009C3B"/>
<path d="M15 2L27 9L15 16L3 9L15 2Z" fill="#FFDF00"/>
<circle cx="15" cy="9" r="5" fill="#002776"/>
<path d="M10.5986 7.14746C10.9091 7.15802 11.3509 7.17893 11.8799 7.22168C12.9369 7.30713 14.3511 7.47875 15.7617 7.82617C17.1853 8.17683 18.3459 8.70853 19.1514 9.15137C19.481 9.33263 19.7511 9.50104 19.957 9.63574C19.9203 9.92541 19.8605 10.2075 19.7764 10.4795C19.7372 10.4517 19.6914 10.4182 19.6377 10.3818C19.4397 10.2479 19.1448 10.0601 18.7656 9.85156C18.0065 9.43422 16.9107 8.93388 15.5693 8.60352C14.2153 8.27007 12.8484 8.10297 11.8164 8.01953C11.3012 7.97788 10.8704 7.9565 10.5703 7.94629C10.4208 7.94121 10.303 7.93969 10.2236 7.93848C10.1842 7.93787 10.1538 7.93764 10.1338 7.9375C10.125 7.93744 10.1181 7.93748 10.1133 7.9375C10.1728 7.66275 10.2548 7.39651 10.3574 7.14062C10.4254 7.14223 10.5064 7.14432 10.5986 7.14746Z" fill="white"/>
</svg>
