<svg width="48" height="48" viewBox="0 0 48 48" fill="none" xmlns="http://www.w3.org/2000/svg">
<path d="M20 30C20.5523 30 21 30.4477 21 31C21 31.5523 20.5523 32 20 32C19.4477 32 19 31.5523 19 31C19 30.4477 19.4477 30 20 30Z" fill="white"/>
<path d="M28 30C28.5523 30 29 30.4477 29 31C29 31.5523 28.5523 32 28 32H23C22.4477 32 22 31.5523 22 31C22 30.4477 22.4477 30 23 30H28Z" fill="white"/>
<path d="M25 24C25.5523 24 26 24.4477 26 25C26 25.5523 25.5523 26 25 26H20C19.4477 26 19 25.5523 19 25C19 24.4477 19.4477 24 20 24H25Z" fill="white"/>
<path d="M28 24C28.5523 24 29 24.4477 29 25C29 25.5523 28.5523 26 28 26C27.4477 26 27 25.5523 27 25C27 24.4477 27.4477 24 28 24Z" fill="white"/>
<path d="M28 20C28.5523 20 29 20.4477 29 21C29 21.5523 28.5523 22 28 22H20C19.4477 22 19 21.5523 19 21C19 20.4477 19.4477 20 20 20H28Z" fill="white"/>
<path d="M25 16C25.5523 16 26 16.4477 26 17C26 17.5523 25.5523 18 25 18H20C19.4477 18 19 17.5523 19 17C19 16.4477 19.4477 16 20 16H25Z" fill="white"/>
<path d="M28 16C28.5523 16 29 16.4477 29 17C29 17.5523 28.5523 18 28 18C27.4477 18 27 17.5523 27 17C27 16.4477 27.4477 16 28 16Z" fill="white"/>
<path fill-rule="evenodd" clip-rule="evenodd" d="M29 12C31.2091 12 33 13.7909 33 16V32C33 34.2091 31.2091 36 29 36H19C16.7909 36 15 34.2091 15 32V16C15 13.7909 16.7909 12 19 12H29ZM19 14C17.8954 14 17 14.8954 17 16V32C17 33.1046 17.8954 34 19 34H29C30.1046 34 31 33.1046 31 32V16C31 14.8954 30.1046 14 29 14H19Z" fill="white"/>
</svg>
