<svg width="48" height="48" viewBox="0 0 48 48" fill="none" xmlns="http://www.w3.org/2000/svg">
<path fill-rule="evenodd" clip-rule="evenodd" d="M23.52 29.5385C25.3757 29.5385 26.88 30.9849 26.88 32.7692C26.88 34.5535 25.3757 36 23.52 36C21.6643 36 20.16 34.5535 20.16 32.7692C20.16 30.9849 21.6643 29.5385 23.52 29.5385ZM23.52 31.3846C22.7247 31.3846 22.08 32.0045 22.08 32.7692C22.08 33.5339 22.7247 34.1538 23.52 34.1538C24.3153 34.1538 24.96 33.5339 24.96 32.7692C24.96 32.0045 24.3153 31.3846 23.52 31.3846Z" fill="#A5C8FF"/>
<path fill-rule="evenodd" clip-rule="evenodd" d="M31.68 26.7692C33.2706 26.7692 34.56 28.0091 34.56 29.5385C34.56 31.0679 33.2706 32.3077 31.68 32.3077C30.0894 32.3077 28.8 31.0679 28.8 29.5385C28.8 28.0091 30.0894 26.7692 31.68 26.7692ZM31.68 28.6154C31.1498 28.6154 30.72 29.0287 30.72 29.5385C30.72 30.0483 31.1498 30.4615 31.68 30.4615C32.2102 30.4615 32.64 30.0483 32.64 29.5385C32.64 29.0287 32.2102 28.6154 31.68 28.6154Z" fill="#A5C8FF"/>
<path d="M15.84 29.0769C16.3702 29.0769 16.8 29.4902 16.8 30C16.8 30.5098 16.3702 30.9231 15.84 30.9231C15.3098 30.9231 14.88 30.5098 14.88 30C14.88 29.4902 15.3098 29.0769 15.84 29.0769Z" fill="#A5C8FF"/>
<path d="M13.2 23.0769C13.8627 23.0769 14.4 23.5935 14.4 24.2308C14.4 24.868 13.8627 25.3846 13.2 25.3846C12.5373 25.3846 12 24.868 12 24.2308C12 23.5935 12.5373 23.0769 13.2 23.0769Z" fill="#A5C8FF"/>
<path fill-rule="evenodd" clip-rule="evenodd" d="M33.6 19.3846C34.9255 19.3846 36 20.4178 36 21.6923C36 22.9668 34.9255 24 33.6 24C32.2745 24 31.2 22.9668 31.2 21.6923C31.2 20.4178 32.2745 19.3846 33.6 19.3846ZM33.6 21.2308C33.3349 21.2308 33.12 21.4374 33.12 21.6923C33.12 21.9472 33.3349 22.1538 33.6 22.1538C33.8651 22.1538 34.08 21.9472 34.08 21.6923C34.08 21.4374 33.8651 21.2308 33.6 21.2308Z" fill="#A5C8FF"/>
<path d="M14.88 16.1538C15.6753 16.1538 16.32 16.7738 16.32 17.5385C16.32 18.3032 15.6753 18.9231 14.88 18.9231C14.0847 18.9231 13.44 18.3032 13.44 17.5385C13.44 16.7738 14.0847 16.1538 14.88 16.1538Z" fill="#A5C8FF"/>
<path fill-rule="evenodd" clip-rule="evenodd" d="M29.52 13.3846C30.7129 13.3846 31.68 14.3145 31.68 15.4615C31.68 16.6086 30.7129 17.5385 29.52 17.5385C28.3271 17.5385 27.36 16.6086 27.36 15.4615C27.36 14.3145 28.3271 13.3846 29.52 13.3846ZM29.52 15.2308C29.3875 15.2308 29.28 15.3341 29.28 15.4615C29.28 15.589 29.3875 15.6923 29.52 15.6923C29.6525 15.6923 29.76 15.589 29.76 15.4615C29.76 15.3341 29.6525 15.2308 29.52 15.2308Z" fill="#A5C8FF"/>
<path d="M21.6 12C22.5278 12 23.28 12.7232 23.28 13.6154C23.28 14.5075 22.5278 15.2308 21.6 15.2308C20.6722 15.2308 19.92 14.5075 19.92 13.6154C19.92 12.7232 20.6722 12 21.6 12Z" fill="#A5C8FF"/>
</svg>
